<mxfile host="65bd71144e">
    <diagram id="_564jnh8fWY3xBIqIt1B" name="Page-1">
        <mxGraphModel dx="1904" dy="1904" grid="0" gridSize="10" guides="1" tooltips="1" connect="1" arrows="1" fold="1" page="0" pageScale="1" pageWidth="850" pageHeight="1100" math="0" shadow="0">
            <root>
                <mxCell id="0"/>
                <mxCell id="1" parent="0"/>
                <UserObject label="" mermaidData="{&#xa;  &quot;data&quot;: &quot;flowchart TD;\n\n    A[1] --&gt; B{Cek SESSION user}\n    B --&gt;|Session tidak ada| C[Redirect ke login.php]\n    B --&gt;|Session ada| D[Redirect ke dashboard.php]\n    \n    C --&gt; E[Tampilkan form login]\n    E --&gt; F{User submit form?}\n    F --&gt;|Ya| G[Post ke login.php]\n    F --&gt;|Tidak| E\n    \n    G --&gt; H{Validasi input}\n    H --&gt;|Username kosong| I[Error: Username wajib diisi]\n    H --&gt;|Password kosong| J[Error: Password wajib diisi]\n    H --&gt;|Input valid| K[Panggil fungsi login]\n    \n    I --&gt; E\n    J --&gt; E\n    \n    K --&gt; L{Cek database users}\n    L --&gt;|User tidak ditemukan| M[Error: Username tidak ditemukan]\n    L --&gt;|Password salah| N[Error: Password salah]\n    L --&gt;|Login berhasil| O[Set SESSION user]\n    \n    M --&gt; E\n    N --&gt; E\n    \n    O --&gt; P[Redirect ke dashboard.php]\n    P --&gt; D\n    \n    D --&gt; Q[Tampilkan menu dashboard]\n    Q --&gt; R[Menu: Manajemen Kelas]\n    Q --&gt; S[Menu: Manajemen Siswa]\n    Q --&gt; T[Menu: Input/Edit Nilai]\n    Q --&gt; U[Menu: Logout]\n    \n    R --&gt; V[classes.php]\n    S --&gt; W[students.php]\n    T --&gt; X[grades.php]\n    U --&gt; Y[logout.php]\n    \n    Y --&gt; Z[session_destroy]\n    Z --&gt; C&quot;&#xa;}" id="2">
                    <mxCell style="shape=image;noLabel=1;verticalAlign=top;imageAspect=1;image=data:image/svg+xml,PHN2ZyBhcmlhLXJvbGVkZXNjcmlwdGlvbj0iZmxvd2NoYXJ0LXYyIiByb2xlPSJncmFwaGljcy1kb2N1bWVudCBkb2N1bWVudCIgdmlld0JveD0iMC4wMDAwMDc2MjkzOTQ1MzEyNSAwLjAwMDAwMTkwNzM0ODYzMjgxMjUgMTgwNy42ODk0NTMxMjUgMjIyOS45NzkwMDM5MDYyNSIgc3R5bGU9Im1heC13aWR0aDogMTgwNy42ODk0NTMxMjVweDsiIGNsYXNzPSJmbG93Y2hhcnQiIHhtbG5zPSJodHRwOi8vd3d3LnczLm9yZy8yMDAwL3N2ZyIgd2lkdGg9IjEwMCUiIGlkPSJnZU1lcm1haWRPdXRwdXQtMTc0ODkyNzg0NzkwMSI+PHN0eWxlPiNnZU1lcm1haWRPdXRwdXQtMTc0ODkyNzg0NzkwMXtmb250LWZhbWlseToidHJlYnVjaGV0IG1zIix2ZXJkYW5hLGFyaWFsLHNhbnMtc2VyaWY7Zm9udC1zaXplOjE2cHg7ZmlsbDojMDAwMDAwO30jZ2VNZXJtYWlkT3V0cHV0LTE3NDg5Mjc4NDc5MDEgLmVycm9yLWljb257ZmlsbDojNTUyMjIyO30jZ2VNZXJtYWlkT3V0cHV0LTE3NDg5Mjc4NDc5MDEgLmVycm9yLXRleHR7ZmlsbDojNTUyMjIyO3N0cm9rZTojNTUyMjIyO30jZ2VNZXJtYWlkT3V0cHV0LTE3NDg5Mjc4NDc5MDEgLmVkZ2UtdGhpY2tuZXNzLW5vcm1hbHtzdHJva2Utd2lkdGg6MXB4O30jZ2VNZXJtYWlkT3V0cHV0LTE3NDg5Mjc4NDc5MDEgLmVkZ2UtdGhpY2tuZXNzLXRoaWNre3N0cm9rZS13aWR0aDozLjVweDt9I2dlTWVybWFpZE91dHB1dC0xNzQ4OTI3ODQ3OTAxIC5lZGdlLXBhdHRlcm4tc29saWR7c3Ryb2tlLWRhc2hhcnJheTowO30jZ2VNZXJtYWlkT3V0cHV0LTE3NDg5Mjc4NDc5MDEgLmVkZ2UtdGhpY2tuZXNzLWludmlzaWJsZXtzdHJva2Utd2lkdGg6MDtmaWxsOm5vbmU7fSNnZU1lcm1haWRPdXRwdXQtMTc0ODkyNzg0NzkwMSAuZWRnZS1wYXR0ZXJuLWRhc2hlZHtzdHJva2UtZGFzaGFycmF5OjM7fSNnZU1lcm1haWRPdXRwdXQtMTc0ODkyNzg0NzkwMSAuZWRnZS1wYXR0ZXJuLWRvdHRlZHtzdHJva2UtZGFzaGFycmF5OjI7fSNnZU1lcm1haWRPdXRwdXQtMTc0ODkyNzg0NzkwMSAubWFya2Vye2ZpbGw6IzY2NjtzdHJva2U6IzY2Njt9I2dlTWVybWFpZE91dHB1dC0xNzQ4OTI3ODQ3OTAxIC5tYXJrZXIuY3Jvc3N7c3Ryb2tlOiM2NjY7fSNnZU1lcm1haWRPdXRwdXQtMTc0ODkyNzg0NzkwMSBzdmd7Zm9udC1mYW1pbHk6InRyZWJ1Y2hldCBtcyIsdmVyZGFuYSxhcmlhbCxzYW5zLXNlcmlmO2ZvbnQtc2l6ZToxNnB4O30jZ2VNZXJtYWlkT3V0cHV0LTE3NDg5Mjc4NDc5MDEgcHttYXJnaW46MDt9I2dlTWVybWFpZE91dHB1dC0xNzQ4OTI3ODQ3OTAxIC5sYWJlbHtmb250LWZhbWlseToidHJlYnVjaGV0IG1zIix2ZXJkYW5hLGFyaWFsLHNhbnMtc2VyaWY7Y29sb3I6IzAwMDAwMDt9I2dlTWVybWFpZE91dHB1dC0xNzQ4OTI3ODQ3OTAxIC5jbHVzdGVyLWxhYmVsIHRleHR7ZmlsbDojMzMzO30jZ2VNZXJtYWlkT3V0cHV0LTE3NDg5Mjc4NDc5MDEgLmNsdXN0ZXItbGFiZWwgc3Bhbntjb2xvcjojMzMzO30jZ2VNZXJtYWlkT3V0cHV0LTE3NDg5Mjc4NDc5MDEgLmNsdXN0ZXItbGFiZWwgc3BhbiBwe2JhY2tncm91bmQtY29sb3I6dHJhbnNwYXJlbnQ7fSNnZU1lcm1haWRPdXRwdXQtMTc0ODkyNzg0NzkwMSAubGFiZWwgdGV4dCwjZ2VNZXJtYWlkT3V0cHV0LTE3NDg5Mjc4NDc5MDEgc3BhbntmaWxsOiMwMDAwMDA7Y29sb3I6IzAwMDAwMDt9I2dlTWVybWFpZE91dHB1dC0xNzQ4OTI3ODQ3OTAxIC5ub2RlIHJlY3QsI2dlTWVybWFpZE91dHB1dC0xNzQ4OTI3ODQ3OTAxIC5ub2RlIGNpcmNsZSwjZ2VNZXJtYWlkT3V0cHV0LTE3NDg5Mjc4NDc5MDEgLm5vZGUgZWxsaXBzZSwjZ2VNZXJtYWlkT3V0cHV0LTE3NDg5Mjc4NDc5MDEgLm5vZGUgcG9seWdvbiwjZ2VNZXJtYWlkT3V0cHV0LTE3NDg5Mjc4NDc5MDEgLm5vZGUgcGF0aHtmaWxsOiNlZWU7c3Ryb2tlOiM5OTk7c3Ryb2tlLXdpZHRoOjFweDt9I2dlTWVybWFpZE91dHB1dC0xNzQ4OTI3ODQ3OTAxIC5yb3VnaC1ub2RlIC5sYWJlbCB0ZXh0LCNnZU1lcm1haWRPdXRwdXQtMTc0ODkyNzg0NzkwMSAubm9kZSAubGFiZWwgdGV4dCwjZ2VNZXJtYWlkT3V0cHV0LTE3NDg5Mjc4NDc5MDEgLmltYWdlLXNoYXBlIC5sYWJlbCwjZ2VNZXJtYWlkT3V0cHV0LTE3NDg5Mjc4NDc5MDEgLmljb24tc2hhcGUgLmxhYmVse3RleHQtYW5jaG9yOm1pZGRsZTt9I2dlTWVybWFpZE91dHB1dC0xNzQ4OTI3ODQ3OTAxIC5ub2RlIC5rYXRleCBwYXRoe2ZpbGw6IzAwMDtzdHJva2U6IzAwMDtzdHJva2Utd2lkdGg6MXB4O30jZ2VNZXJtYWlkT3V0cHV0LTE3NDg5Mjc4NDc5MDEgLnJvdWdoLW5vZGUgLmxhYmVsLCNnZU1lcm1haWRPdXRwdXQtMTc0ODkyNzg0NzkwMSAubm9kZSAubGFiZWwsI2dlTWVybWFpZE91dHB1dC0xNzQ4OTI3ODQ3OTAxIC5pbWFnZS1zaGFwZSAubGFiZWwsI2dlTWVybWFpZE91dHB1dC0xNzQ4OTI3ODQ3OTAxIC5pY29uLXNoYXBlIC5sYWJlbHt0ZXh0LWFsaWduOmNlbnRlcjt9I2dlTWVybWFpZE91dHB1dC0xNzQ4OTI3ODQ3OTAxIC5ub2RlLmNsaWNrYWJsZXtjdXJzb3I6cG9pbnRlcjt9I2dlTWVybWFpZE91dHB1dC0xNzQ4OTI3ODQ3OTAxIC5yb290IC5hbmNob3IgcGF0aHtmaWxsOiM2NjYhaW1wb3J0YW50O3N0cm9rZS13aWR0aDowO3N0cm9rZTojNjY2O30jZ2VNZXJtYWlkT3V0cHV0LTE3NDg5Mjc4NDc5MDEgLmFycm93aGVhZFBhdGh7ZmlsbDojMzMzMzMzO30jZ2VNZXJtYWlkT3V0cHV0LTE3NDg5Mjc4NDc5MDEgLmVkZ2VQYXRoIC5wYXRoe3N0cm9rZTojNjY2O3N0cm9rZS13aWR0aDoyLjBweDt9I2dlTWVybWFpZE91dHB1dC0xNzQ4OTI3ODQ3OTAxIC5mbG93Y2hhcnQtbGlua3tzdHJva2U6IzY2NjtmaWxsOm5vbmU7fSNnZU1lcm1haWRPdXRwdXQtMTc0ODkyNzg0NzkwMSAuZWRnZUxhYmVse2JhY2tncm91bmQtY29sb3I6d2hpdGU7dGV4dC1hbGlnbjpjZW50ZXI7fSNnZU1lcm1haWRPdXRwdXQtMTc0ODkyNzg0NzkwMSAuZWRnZUxhYmVsIHB7YmFja2dyb3VuZC1jb2xvcjp3aGl0ZTt9I2dlTWVybWFpZE91dHB1dC0xNzQ4OTI3ODQ3OTAxIC5lZGdlTGFiZWwgcmVjdHtvcGFjaXR5OjAuNTtiYWNrZ3JvdW5kLWNvbG9yOndoaXRlO2ZpbGw6d2hpdGU7fSNnZU1lcm1haWRPdXRwdXQtMTc0ODkyNzg0NzkwMSAubGFiZWxCa2d7YmFja2dyb3VuZC1jb2xvcjpyZ2JhKDI1NSwgMjU1LCAyNTUsIDAuNSk7fSNnZU1lcm1haWRPdXRwdXQtMTc0ODkyNzg0NzkwMSAuY2x1c3RlciByZWN0e2ZpbGw6aHNsKDAsIDAlLCA5OC45MjE1Njg2Mjc1JSk7c3Ryb2tlOiM3MDcwNzA7c3Ryb2tlLXdpZHRoOjFweDt9I2dlTWVybWFpZE91dHB1dC0xNzQ4OTI3ODQ3OTAxIC5jbHVzdGVyIHRleHR7ZmlsbDojMzMzO30jZ2VNZXJtYWlkT3V0cHV0LTE3NDg5Mjc4NDc5MDEgLmNsdXN0ZXIgc3Bhbntjb2xvcjojMzMzO30jZ2VNZXJtYWlkT3V0cHV0LTE3NDg5Mjc4NDc5MDEgZGl2Lm1lcm1haWRUb29sdGlwe3Bvc2l0aW9uOmFic29sdXRlO3RleHQtYWxpZ246Y2VudGVyO21heC13aWR0aDoyMDBweDtwYWRkaW5nOjJweDtmb250LWZhbWlseToidHJlYnVjaGV0IG1zIix2ZXJkYW5hLGFyaWFsLHNhbnMtc2VyaWY7Zm9udC1zaXplOjEycHg7YmFja2dyb3VuZDpoc2woLTE2MCwgMCUsIDkzLjMzMzMzMzMzMzMlKTtib3JkZXI6MXB4IHNvbGlkICM3MDcwNzA7Ym9yZGVyLXJhZGl1czoycHg7cG9pbnRlci1ldmVudHM6bm9uZTt6LWluZGV4OjEwMDt9I2dlTWVybWFpZE91dHB1dC0xNzQ4OTI3ODQ3OTAxIC5mbG93Y2hhcnRUaXRsZVRleHR7dGV4dC1hbmNob3I6bWlkZGxlO2ZvbnQtc2l6ZToxOHB4O2ZpbGw6IzAwMDAwMDt9I2dlTWVybWFpZE91dHB1dC0xNzQ4OTI3ODQ3OTAxIHJlY3QudGV4dHtmaWxsOm5vbmU7c3Ryb2tlLXdpZHRoOjA7fSNnZU1lcm1haWRPdXRwdXQtMTc0ODkyNzg0NzkwMSAuaWNvbi1zaGFwZSwjZ2VNZXJtYWlkT3V0cHV0LTE3NDg5Mjc4NDc5MDEgLmltYWdlLXNoYXBle2JhY2tncm91bmQtY29sb3I6d2hpdGU7dGV4dC1hbGlnbjpjZW50ZXI7fSNnZU1lcm1haWRPdXRwdXQtMTc0ODkyNzg0NzkwMSAuaWNvbi1zaGFwZSBwLCNnZU1lcm1haWRPdXRwdXQtMTc0ODkyNzg0NzkwMSAuaW1hZ2Utc2hhcGUgcHtiYWNrZ3JvdW5kLWNvbG9yOndoaXRlO3BhZGRpbmc6MnB4O30jZ2VNZXJtYWlkT3V0cHV0LTE3NDg5Mjc4NDc5MDEgLmljb24tc2hhcGUgcmVjdCwjZ2VNZXJtYWlkT3V0cHV0LTE3NDg5Mjc4NDc5MDEgLmltYWdlLXNoYXBlIHJlY3R7b3BhY2l0eTowLjU7YmFja2dyb3VuZC1jb2xvcjp3aGl0ZTtmaWxsOndoaXRlO30jZ2VNZXJtYWlkT3V0cHV0LTE3NDg5Mjc4NDc5MDEgOnJvb3R7LS1tZXJtYWlkLWZvbnQtZmFtaWx5OiJ0cmVidWNoZXQgbXMiLHZlcmRhbmEsYXJpYWwsc2Fucy1zZXJpZjt9PC9zdHlsZT48Zz48bWFya2VyIG9yaWVudD0iYXV0byIgbWFya2VySGVpZ2h0PSI4IiBtYXJrZXJXaWR0aD0iOCIgbWFya2VyVW5pdHM9InVzZXJTcGFjZU9uVXNlIiByZWZZPSI1IiByZWZYPSI1IiB2aWV3Qm94PSIwIDAgMTAgMTAiIGNsYXNzPSJtYXJrZXIgZmxvd2NoYXJ0LXYyIiBpZD0iZ2VNZXJtYWlkT3V0cHV0LTE3NDg5Mjc4NDc5MDFfZmxvd2NoYXJ0LXYyLXBvaW50RW5kIj48cGF0aCBzdHlsZT0ic3Ryb2tlLXdpZHRoOiAxOyBzdHJva2UtZGFzaGFycmF5OiAxLCAwOyIgY2xhc3M9ImFycm93TWFya2VyUGF0aCIgZD0iTSAwIDAgTCAxMCA1IEwgMCAxMCB6Ij48L3BhdGg+PC9tYXJrZXI+PG1hcmtlciBvcmllbnQ9ImF1dG8iIG1hcmtlckhlaWdodD0iOCIgbWFya2VyV2lkdGg9IjgiIG1hcmtlclVuaXRzPSJ1c2VyU3BhY2VPblVzZSIgcmVmWT0iNSIgcmVmWD0iNC41IiB2aWV3Qm94PSIwIDAgMTAgMTAiIGNsYXNzPSJtYXJrZXIgZmxvd2NoYXJ0LXYyIiBpZD0iZ2VNZXJtYWlkT3V0cHV0LTE3NDg5Mjc4NDc5MDFfZmxvd2NoYXJ0LXYyLXBvaW50U3RhcnQiPjxwYXRoIHN0eWxlPSJzdHJva2Utd2lkdGg6IDE7IHN0cm9rZS1kYXNoYXJyYXk6IDEsIDA7IiBjbGFzcz0iYXJyb3dNYXJrZXJQYXRoIiBkPSJNIDAgNSBMIDEwIDEwIEwgMTAgMCB6Ij48L3BhdGg+PC9tYXJrZXI+PG1hcmtlciBvcmllbnQ9ImF1dG8iIG1hcmtlckhlaWdodD0iMTEiIG1hcmtlcldpZHRoPSIxMSIgbWFya2VyVW5pdHM9InVzZXJTcGFjZU9uVXNlIiByZWZZPSI1IiByZWZYPSIxMSIgdmlld0JveD0iMCAwIDEwIDEwIiBjbGFzcz0ibWFya2VyIGZsb3djaGFydC12MiIgaWQ9ImdlTWVybWFpZE91dHB1dC0xNzQ4OTI3ODQ3OTAxX2Zsb3djaGFydC12Mi1jaXJjbGVFbmQiPjxjaXJjbGUgc3R5bGU9InN0cm9rZS13aWR0aDogMTsgc3Ryb2tlLWRhc2hhcnJheTogMSwgMDsiIGNsYXNzPSJhcnJvd01hcmtlclBhdGgiIHI9IjUiIGN5PSI1IiBjeD0iNSI+PC9jaXJjbGU+PC9tYXJrZXI+PG1hcmtlciBvcmllbnQ9ImF1dG8iIG1hcmtlckhlaWdodD0iMTEiIG1hcmtlcldpZHRoPSIxMSIgbWFya2VyVW5pdHM9InVzZXJTcGFjZU9uVXNlIiByZWZZPSI1IiByZWZYPSItMSIgdmlld0JveD0iMCAwIDEwIDEwIiBjbGFzcz0ibWFya2VyIGZsb3djaGFydC12MiIgaWQ9ImdlTWVybWFpZE91dHB1dC0xNzQ4OTI3ODQ3OTAxX2Zsb3djaGFydC12Mi1jaXJjbGVTdGFydCI+PGNpcmNsZSBzdHlsZT0ic3Ryb2tlLXdpZHRoOiAxOyBzdHJva2UtZGFzaGFycmF5OiAxLCAwOyIgY2xhc3M9ImFycm93TWFya2VyUGF0aCIgcj0iNSIgY3k9IjUiIGN4PSI1Ij48L2NpcmNsZT48L21hcmtlcj48bWFya2VyIG9yaWVudD0iYXV0byIgbWFya2VySGVpZ2h0PSIxMSIgbWFya2VyV2lkdGg9IjExIiBtYXJrZXJVbml0cz0idXNlclNwYWNlT25Vc2UiIHJlZlk9IjUuMiIgcmVmWD0iMTIiIHZpZXdCb3g9IjAgMCAxMSAxMSIgY2xhc3M9Im1hcmtlciBjcm9zcyBmbG93Y2hhcnQtdjIiIGlkPSJnZU1lcm1haWRPdXRwdXQtMTc0ODkyNzg0NzkwMV9mbG93Y2hhcnQtdjItY3Jvc3NFbmQiPjxwYXRoIHN0eWxlPSJzdHJva2Utd2lkdGg6IDI7IHN0cm9rZS1kYXNoYXJyYXk6IDEsIDA7IiBjbGFzcz0iYXJyb3dNYXJrZXJQYXRoIiBkPSJNIDEsMSBsIDksOSBNIDEwLDEgbCAtOSw5Ij48L3BhdGg+PC9tYXJrZXI+PG1hcmtlciBvcmllbnQ9ImF1dG8iIG1hcmtlckhlaWdodD0iMTEiIG1hcmtlcldpZHRoPSIxMSIgbWFya2VyVW5pdHM9InVzZXJTcGFjZU9uVXNlIiByZWZZPSI1LjIiIHJlZlg9Ii0xIiB2aWV3Qm94PSIwIDAgMTEgMTEiIGNsYXNzPSJtYXJrZXIgY3Jvc3MgZmxvd2NoYXJ0LXYyIiBpZD0iZ2VNZXJtYWlkT3V0cHV0LTE3NDg5Mjc4NDc5MDFfZmxvd2NoYXJ0LXYyLWNyb3NzU3RhcnQiPjxwYXRoIHN0eWxlPSJzdHJva2Utd2lkdGg6IDI7IHN0cm9rZS1kYXNoYXJyYXk6IDEsIDA7IiBjbGFzcz0iYXJyb3dNYXJrZXJQYXRoIiBkPSJNIDEsMSBsIDksOSBNIDEwLDEgbCAtOSw5Ij48L3BhdGg+PC9tYXJrZXI+PGcgY2xhc3M9InJvb3QiPjxnIGNsYXNzPSJjbHVzdGVycyI+PC9nPjxnIGNsYXNzPSJlZGdlUGF0aHMiPjxwYXRoIG1hcmtlci1lbmQ9InVybCgjZ2VNZXJtYWlkT3V0cHV0LTE3NDg5Mjc4NDc5MDFfZmxvd2NoYXJ0LXYyLXBvaW50RW5kKSIgc3R5bGU9IiIgY2xhc3M9ImVkZ2UtdGhpY2tuZXNzLW5vcm1hbCBlZGdlLXBhdHRlcm4tc29saWQgZWRnZS10aGlja25lc3Mtbm9ybWFsIGVkZ2UtcGF0dGVybi1zb2xpZCBmbG93Y2hhcnQtbGluayIgaWQ9IkxfQV9CXzAiIGQ9Ik0xNTk2LjUzNiw2MS45OTZMMTU5Ni41MzYsNjYuMTYzQzE1OTYuNTM2LDcwLjMzLDE1OTYuNTM2LDc4LjY2MywxNTk2LjYwNiw4Ni40MTNDMTU5Ni42NzYsOTQuMTYzLDE1OTYuODE3LDEwMS4zMywxNTk2Ljg4NywxMDQuOTE0TDE1OTYuOTU3LDEwOC40OTciPjwvcGF0aD48cGF0aCBtYXJrZXItZW5kPSJ1cmwoI2dlTWVybWFpZE91dHB1dC0xNzQ4OTI3ODQ3OTAxX2Zsb3djaGFydC12Mi1wb2ludEVuZCkiIHN0eWxlPSIiIGNsYXNzPSJlZGdlLXRoaWNrbmVzcy1ub3JtYWwgZWRnZS1wYXR0ZXJuLXNvbGlkIGVkZ2UtdGhpY2tuZXNzLW5vcm1hbCBlZGdlLXBhdHRlcm4tc29saWQgZmxvd2NoYXJ0LWxpbmsiIGlkPSJMX0JfQ18xIiBkPSJNMTYwNC41MDYsMjgyLjI4OEwxNjA1LjA5NSwyODkuNTFDMTYwNS42ODQsMjk2LjczMiwxNjA2Ljg2MiwzMTEuMTc1LDE2MDcuNDUyLDMyMy43OUMxNjA4LjA0MSwzMzYuNDA1LDE2MDguMDQxLDM0Ny4xOTIsMTYwOC4wNDEsMzUyLjU4NUwxNjA4LjA0MSwzNTcuOTc5Ij48L3BhdGg+PHBhdGggbWFya2VyLWVuZD0idXJsKCNnZU1lcm1haWRPdXRwdXQtMTc0ODkyNzg0NzkwMV9mbG93Y2hhcnQtdjItcG9pbnRFbmQpIiBzdHlsZT0iIiBjbGFzcz0iZWRnZS10aGlja25lc3Mtbm9ybWFsIGVkZ2UtcGF0dGVybi1zb2xpZCBlZGdlLXRoaWNrbmVzcy1ub3JtYWwgZWRnZS1wYXR0ZXJuLXNvbGlkIGZsb3djaGFydC1saW5rIiBpZD0iTF9CX0RfMiIgZD0iTTE1NTAuMTA1LDI0Mi44MjhMMTUzNC4zOTksMjU2LjYyNkMxNTE4LjY5MiwyNzAuNDI1LDE0ODcuMjgsMjk4LjAyMiwxNDcxLjU3MywzMjIuMzhDMTQ1NS44NjcsMzQ2LjczOCwxNDU1Ljg2NywzNjcuODU4LDE0NTUuODY3LDM4Ny4wODRDMTQ1NS44NjcsNDA2LjMxLDE0NTUuODY3LDQyMy42NDIsMTQ1NS44NjcsNDQwLjk3NUMxNDU1Ljg2Nyw0NTguMzA4LDE0NTUuODY3LDQ3NS42NCwxNDU1Ljg2Nyw0OTQuODY2QzE0NTUuODY3LDUxNC4wOTMsMTQ1NS44NjcsNTM1LjIxMiwxNDU1Ljg2Nyw1NjcuMTMzQzE0NTUuODY3LDU5OS4wNTQsMTQ1NS44NjcsNjQxLjc3OCwxNDU1Ljg2Nyw2ODQuNTAxQzE0NTUuODY3LDcyNy4yMjQsMTQ1NS44NjcsNzY5Ljk0NywxNDU1Ljg2Nyw4MDEuODY4QzE0NTUuODY3LDgzMy43ODksMTQ1NS44NjcsODU0LjkwOSwxNDU1Ljg2Nyw4NzQuMTM1QzE0NTUuODY3LDg5My4zNjEsMTQ1NS44NjcsOTEwLjY5NCwxNDU1Ljg2Nyw5MzYuMDUyQzE0NTUuODY3LDk2MS40MTEsMTQ1NS44NjcsOTk0Ljc5NSwxNDU1Ljg2NywxMDMwLjA3M0MxNDU1Ljg2NywxMDY1LjM1MSwxNDU1Ljg2NywxMTAyLjUyMywxNDU1Ljg2NywxMTMxLjY2OEMxNDU1Ljg2NywxMTYwLjgxMywxNDU1Ljg2NywxMTgxLjkzMywxNDU1Ljg2NywxMjAxLjE1OUMxNDU1Ljg2NywxMjIwLjM4NSwxNDU1Ljg2NywxMjM3LjcxNywxNDU1Ljg2NywxMjY2LjQ4N0MxNDU1Ljg2NywxMjk1LjI1NiwxNDU1Ljg2NywxMzM1LjQ2MiwxNDU1Ljg2NywxMzc3LjU2MUMxNDU1Ljg2NywxNDE5LjY2LDE0NTUuODY3LDE0NjMuNjUzLDE0NTUuODY3LDE0OTYuMjA4QzE0NTUuODY3LDE1MjguNzY0LDE0NTUuODY3LDE1NDkuODg0LDE0NTUuODY3LDE1NjkuMTFDMTQ1NS44NjcsMTU4OC4zMzYsMTQ1NS44NjcsMTYwNS42NjksMTQ1NS44NjcsMTYyMy4wMDFDMTQ1NS44NjcsMTY0MC4zMzQsMTQ1NS44NjcsMTY1Ny42NjcsMTQ1NS44NjcsMTY3NC45OTlDMTQ1NS44NjcsMTY5Mi4zMzIsMTQ1NS44NjcsMTcwOS42NjUsMTQ0NS4yNzgsMTcyMi4yNjZDMTQzNC42ODksMTczNC44NjYsMTQxMy41MTIsMTc0Mi43MzUsMTQwMi45MjMsMTc0Ni42N0wxMzkyLjMzNCwxNzUwLjYwNCI+PC9wYXRoPjxwYXRoIG1hcmtlci1lbmQ9InVybCgjZ2VNZXJtYWlkT3V0cHV0LTE3NDg5Mjc4NDc5MDFfZmxvd2NoYXJ0LXYyLXBvaW50RW5kKSIgc3R5bGU9IiIgY2xhc3M9ImVkZ2UtdGhpY2tuZXNzLW5vcm1hbCBlZGdlLXBhdHRlcm4tc29saWQgZWRnZS10aGlja25lc3Mtbm9ybWFsIGVkZ2UtcGF0dGVybi1zb2xpZCBmbG93Y2hhcnQtbGluayIgaWQ9IkxfQ19FXzMiIGQ9Ik0xNTAxLjI0MywzOTMuOTk5TDEzMzQuNzQxLDQwMS44MjhDMTE2OC4yNCw0MDkuNjU4LDgzNS4yMzcsNDI1LjMxNiw2NjguNzM1LDQzNi42NDZDNTAyLjIzNCw0NDcuOTc1LDUwMi4yMzQsNDU0Ljk3NSw1MDIuMjM0LDQ1OC40NzVMNTAyLjIzNCw0NjEuOTc1Ij48L3BhdGg+PHBhdGggbWFya2VyLWVuZD0idXJsKCNnZU1lcm1haWRPdXRwdXQtMTc0ODkyNzg0NzkwMV9mbG93Y2hhcnQtdjItcG9pbnRFbmQpIiBzdHlsZT0iIiBjbGFzcz0iZWRnZS10aGlja25lc3Mtbm9ybWFsIGVkZ2UtcGF0dGVybi1zb2xpZCBlZGdlLXRoaWNrbmVzcy1ub3JtYWwgZWRnZS1wYXR0ZXJuLXNvbGlkIGZsb3djaGFydC1saW5rIiBpZD0iTF9FX0ZfNCIgZD0iTTUyNC45OTEsNTE5Ljk3MUw1MzAuMDk5LDUyNi4wMzFDNTM1LjIwNyw1MzIuMDkxLDU0NS40MjMsNTQ0LjIxMSw1NDYuNDY0LDU2MC4yOTdDNTQ3LjUwNiw1NzYuMzgzLDUzOS4zNzMsNTk2LjQzNSw1MzUuMzA3LDYwNi40NjJMNTMxLjI0LDYxNi40ODgiPjwvcGF0aD48cGF0aCBtYXJrZXItZW5kPSJ1cmwoI2dlTWVybWFpZE91dHB1dC0xNzQ4OTI3ODQ3OTAxX2Zsb3djaGFydC12Mi1wb2ludEVuZCkiIHN0eWxlPSIiIGNsYXNzPSJlZGdlLXRoaWNrbmVzcy1ub3JtYWwgZWRnZS1wYXR0ZXJuLXNvbGlkIGVkZ2UtdGhpY2tuZXNzLW5vcm1hbCBlZGdlLXBhdHRlcm4tc29saWQgZmxvd2NoYXJ0LWxpbmsiIGlkPSJMX0ZfR181IiBkPSJNNTAyLjczNCw3NzYuODFMNTAyLjY1MSw3ODIuNzg3QzUwMi41NjcsNzg4Ljc2Myw1MDIuNDAxLDgwMC43MTcsNTAyLjMxNyw4MTIuMDg3QzUwMi4yMzQsODIzLjQ1Nyw1MDIuMjM0LDgzNC4yNDMsNTAyLjIzNCw4MzkuNjM3TDUwMi4yMzQsODQ1LjAzIj48L3BhdGg+PHBhdGggbWFya2VyLWVuZD0idXJsKCNnZU1lcm1haWRPdXRwdXQtMTc0ODkyNzg0NzkwMV9mbG93Y2hhcnQtdjItcG9pbnRFbmQpIiBzdHlsZT0iIiBjbGFzcz0iZWRnZS10aGlja25lc3Mtbm9ybWFsIGVkZ2UtcGF0dGVybi1zb2xpZCBlZGdlLXRoaWNrbmVzcy1ub3JtYWwgZWRnZS1wYXR0ZXJuLXNvbGlkIGZsb3djaGFydC1saW5rIiBpZD0iTF9GX0VfNiIgZD0iTTQ2NS4xNzEsNjMwLjc1NEw0NTYuNTU3LDYxOC4zNUM0NDcuOTQzLDYwNS45NDYsNDMwLjcxNCw1ODEuMTM5LDQzMC4wNDUsNTYzLjA2MkM0MjkuMzc3LDU0NC45ODYsNDQ1LjI2OSw1MzMuNjQxLDQ1My4yMTUsNTI3Ljk2OEw0NjEuMTYxLDUyMi4yOTUiPjwvcGF0aD48cGF0aCBtYXJrZXItZW5kPSJ1cmwoI2dlTWVybWFpZE91dHB1dC0xNzQ4OTI3ODQ3OTAxX2Zsb3djaGFydC12Mi1wb2ludEVuZCkiIHN0eWxlPSIiIGNsYXNzPSJlZGdlLXRoaWNrbmVzcy1ub3JtYWwgZWRnZS1wYXR0ZXJuLXNvbGlkIGVkZ2UtdGhpY2tuZXNzLW5vcm1hbCBlZGdlLXBhdHRlcm4tc29saWQgZmxvd2NoYXJ0LWxpbmsiIGlkPSJMX0dfSF83IiBkPSJNNTAyLjIzNCw5MDMuMDI2TDUwMi4yMzQsOTA3LjE5M0M1MDIuMjM0LDkxMS4zNiw1MDIuMjM0LDkxOS42OTMsNTAyLjMwNCw5MjcuNDQzQzUwMi4zNzUsOTM1LjE5Myw1MDIuNTE1LDk0Mi4zNiw1MDIuNTg1LDk0NS45NDRMNTAyLjY1Niw5NDkuNTI3Ij48L3BhdGg+PHBhdGggbWFya2VyLWVuZD0idXJsKCNnZU1lcm1haWRPdXRwdXQtMTc0ODkyNzg0NzkwMV9mbG93Y2hhcnQtdjItcG9pbnRFbmQpIiBzdHlsZT0iIiBjbGFzcz0iZWRnZS10aGlja25lc3Mtbm9ybWFsIGVkZ2UtcGF0dGVybi1zb2xpZCBlZGdlLXRoaWNrbmVzcy1ub3JtYWwgZWRnZS1wYXR0ZXJuLXNvbGlkIGZsb3djaGFydC1saW5rIiBpZD0iTF9IX0lfOCIgZD0iTTQ1MC4zMjYsMTA1MS40MjZMNDE2LjE1NiwxMDY2LjEzN0MzODEuOTg1LDEwODAuODQ5LDMxMy42NDQsMTExMC4yNzEsMjY5LjU4NywxMTMwLjcwOEMyMjUuNTMsMTE1MS4xNDYsMjA1Ljc1NywxMTYyLjU5NywxOTUuODcxLDExNjguMzIzTDE4NS45ODUsMTE3NC4wNDkiPjwvcGF0aD48cGF0aCBtYXJrZXItZW5kPSJ1cmwoI2dlTWVybWFpZE91dHB1dC0xNzQ4OTI3ODQ3OTAxX2Zsb3djaGFydC12Mi1wb2ludEVuZCkiIHN0eWxlPSIiIGNsYXNzPSJlZGdlLXRoaWNrbmVzcy1ub3JtYWwgZWRnZS1wYXR0ZXJuLXNvbGlkIGVkZ2UtdGhpY2tuZXNzLW5vcm1hbCBlZGdlLXBhdHRlcm4tc29saWQgZmxvd2NoYXJ0LWxpbmsiIGlkPSJMX0hfSl85IiBkPSJNNTAyLjczNCwxMTAzLjgzNEw1MDIuNjUxLDExMDkuODFDNTAyLjU2NywxMTE1Ljc4Nyw1MDIuNDAxLDExMjcuNzQsNDk2LjcyNSwxMTM5LjMwNkM0OTEuMDQ4LDExNTAuODcxLDQ3OS44NjMsMTE2Mi4wNDksNDc0LjI3LDExNjcuNjM4TDQ2OC42NzcsMTE3My4yMjYiPjwvcGF0aD48cGF0aCBtYXJrZXItZW5kPSJ1cmwoI2dlTWVybWFpZE91dHB1dC0xNzQ4OTI3ODQ3OTAxX2Zsb3djaGFydC12Mi1wb2ludEVuZCkiIHN0eWxlPSIiIGNsYXNzPSJlZGdlLXRoaWNrbmVzcy1ub3JtYWwgZWRnZS1wYXR0ZXJuLXNvbGlkIGVkZ2UtdGhpY2tuZXNzLW5vcm1hbCBlZGdlLXBhdHRlcm4tc29saWQgZmxvd2NoYXJ0LWxpbmsiIGlkPSJMX0hfS18xMCIgZD0iTTU2NS41NjMsMTA0MS4wMDVMNjQ5Ljc1MSwxMDU3LjQ1M0M3MzMuOTQsMTA3My45MDEsOTAyLjMxNiwxMTA2Ljc5OCw5ODYuNTA1LDExMjguNjM5QzEwNzAuNjkzLDExNTAuNDgsMTA3MC42OTMsMTE2MS4yNjcsMTA3MC42OTMsMTE2Ni42NkwxMDcwLjY5MywxMTcyLjA1NCI+PC9wYXRoPjxwYXRoIG1hcmtlci1lbmQ9InVybCgjZ2VNZXJtYWlkT3V0cHV0LTE3NDg5Mjc4NDc5MDFfZmxvd2NoYXJ0LXYyLXBvaW50RW5kKSIgc3R5bGU9IiIgY2xhc3M9ImVkZ2UtdGhpY2tuZXNzLW5vcm1hbCBlZGdlLXBhdHRlcm4tc29saWQgZWRnZS10aGlja25lc3Mtbm9ybWFsIGVkZ2UtcGF0dGVybi1zb2xpZCBmbG93Y2hhcnQtbGluayIgaWQ9IkxfSV9FXzExIiBkPSJNMTE3Ljk4MywxMTc2LjA1NEwxMTMuOTYsMTE2OS45OTRDMTA5LjkzNiwxMTYzLjkzNCwxMDEuODg5LDExNTEuODE0LDk3Ljg2NSwxMTI3LjE2OEM5My44NDIsMTEwMi41MjMsOTMuODQyLDEwNjUuMzUxLDkzLjg0MiwxMDMwLjA3M0M5My44NDIsOTk0Ljc5NSw5My44NDIsOTYxLjQxMSw5My44NDIsOTM2LjA1MkM5My44NDIsOTEwLjY5NCw5My44NDIsODkzLjM2MSw5My44NDIsODc0LjEzNUM5My44NDIsODU0LjkwOSw5My44NDIsODMzLjc4OSw5My44NDIsODAxLjg2OEM5My44NDIsNzY5Ljk0Nyw5My44NDIsNzI3LjIyNCw5My44NDIsNjg0LjUwMUM5My44NDIsNjQxLjc3OCw5My44NDIsNTk5LjA1NCwxNDMuNjkzLDU2OS45NTlDMTkzLjU0Myw1NDAuODY0LDI5My4yNDQsNTI1LjM5NiwzNDMuMDk1LDUxNy42NjJMMzkyLjk0Niw1MDkuOTI4Ij48L3BhdGg+PHBhdGggbWFya2VyLWVuZD0idXJsKCNnZU1lcm1haWRPdXRwdXQtMTc0ODkyNzg0NzkwMV9mbG93Y2hhcnQtdjItcG9pbnRFbmQpIiBzdHlsZT0iIiBjbGFzcz0iZWRnZS10aGlja25lc3Mtbm9ybWFsIGVkZ2UtcGF0dGVybi1zb2xpZCBlZGdlLXRoaWNrbmVzcy1ub3JtYWwgZWRnZS1wYXR0ZXJuLXNvbGlkIGZsb3djaGFydC1saW5rIiBpZD0iTF9KX0VfMTIiIGQ9Ik0zOTIuMjE1LDExNzYuMDU0TDM4MS43NTIsMTE2OS45OTRDMzcxLjI4OCwxMTYzLjkzNCwzNTAuMzYyLDExNTEuODE0LDMzOS44OTksMTEyNy4xNjhDMzI5LjQzNiwxMTAyLjUyMywzMjkuNDM2LDEwNjUuMzUxLDMyOS40MzYsMTAzMC4wNzNDMzI5LjQzNiw5OTQuNzk1LDMyOS40MzYsOTYxLjQxMSwzMjkuNDM2LDkzNi4wNTJDMzI5LjQzNiw5MTAuNjk0LDMyOS40MzYsODkzLjM2MSwzMjkuNDM2LDg3NC4xMzVDMzI5LjQzNiw4NTQuOTA5LDMyOS40MzYsODMzLjc4OSwzMjkuNDM2LDgwMS44NjhDMzI5LjQzNiw3NjkuOTQ3LDMyOS40MzYsNzI3LjIyNCwzMjkuNDM2LDY4NC41MDFDMzI5LjQzNiw2NDEuNzc4LDMyOS40MzYsNTk5LjA1NCwzNDUuMzM4LDU3MS44NjJDMzYxLjIzOSw1NDQuNjcsMzkzLjA0Myw1MzMuMDA5LDQwOC45NDQsNTI3LjE3OUw0MjQuODQ2LDUyMS4zNDgiPjwvcGF0aD48cGF0aCBtYXJrZXItZW5kPSJ1cmwoI2dlTWVybWFpZE91dHB1dC0xNzQ4OTI3ODQ3OTAxX2Zsb3djaGFydC12Mi1wb2ludEVuZCkiIHN0eWxlPSIiIGNsYXNzPSJlZGdlLXRoaWNrbmVzcy1ub3JtYWwgZWRnZS1wYXR0ZXJuLXNvbGlkIGVkZ2UtdGhpY2tuZXNzLW5vcm1hbCBlZGdlLXBhdHRlcm4tc29saWQgZmxvd2NoYXJ0LWxpbmsiIGlkPSJMX0tfTF8xMyIgZD0iTTEwNzAuNjkzLDEyMzAuMDVMMTA3MC42OTMsMTIzNC4yMTdDMTA3MC42OTMsMTIzOC4zODMsMTA3MC42OTMsMTI0Ni43MTcsMTA3MC43NjMsMTI1NC40NjdDMTA3MC44MzQsMTI2Mi4yMTcsMTA3MC45NzQsMTI2OS4zODQsMTA3MS4wNDQsMTI3Mi45NjdMMTA3MS4xMTUsMTI3Ni41NTEiPjwvcGF0aD48cGF0aCBtYXJrZXItZW5kPSJ1cmwoI2dlTWVybWFpZE91dHB1dC0xNzQ4OTI3ODQ3OTAxX2Zsb3djaGFydC12Mi1wb2ludEVuZCkiIHN0eWxlPSIiIGNsYXNzPSJlZGdlLXRoaWNrbmVzcy1ub3JtYWwgZWRnZS1wYXR0ZXJuLXNvbGlkIGVkZ2UtdGhpY2tuZXNzLW5vcm1hbCBlZGdlLXBhdHRlcm4tc29saWQgZmxvd2NoYXJ0LWxpbmsiIGlkPSJMX0xfTV8xNCIgZD0iTTEwMDYuMDc4LDE0MDYuNjdMOTY5Ljg5LDE0MjMuNDk5QzkzMy43MDEsMTQ0MC4zMjgsODYxLjMyNSwxNDczLjk4Nyw4MTYuNzA2LDE0OTYuNTAzQzc3Mi4wODcsMTUxOS4wMTksNzU1LjIyNiwxNTMwLjM5NCw3NDYuNzk2LDE1MzYuMDgxTDczOC4zNjUsMTU0MS43NjgiPjwvcGF0aD48cGF0aCBtYXJrZXItZW5kPSJ1cmwoI2dlTWVybWFpZE91dHB1dC0xNzQ4OTI3ODQ3OTAxX2Zsb3djaGFydC12Mi1wb2ludEVuZCkiIHN0eWxlPSIiIGNsYXNzPSJlZGdlLXRoaWNrbmVzcy1ub3JtYWwgZWRnZS1wYXR0ZXJuLXNvbGlkIGVkZ2UtdGhpY2tuZXNzLW5vcm1hbCBlZGdlLXBhdHRlcm4tc29saWQgZmxvd2NoYXJ0LWxpbmsiIGlkPSJMX0xfTl8xNSIgZD0iTTEwNTcuNDIyLDE0NTguMDE0TDEwNTUuOTMzLDE0NjYuMjg2QzEwNTQuNDQ0LDE0NzQuNTU4LDEwNTEuNDY1LDE0OTEuMTAxLDEwNDQuMDY2LDE1MDQuOTc1QzEwMzYuNjY2LDE1MTguODQ4LDEwMjQuODQ2LDE1MzAuMDUxLDEwMTguOTM1LDE1MzUuNjUyTDEwMTMuMDI1LDE1NDEuMjUzIj48L3BhdGg+PHBhdGggbWFya2VyLWVuZD0idXJsKCNnZU1lcm1haWRPdXRwdXQtMTc0ODkyNzg0NzkwMV9mbG93Y2hhcnQtdjItcG9pbnRFbmQpIiBzdHlsZT0iIiBjbGFzcz0iZWRnZS10aGlja25lc3Mtbm9ybWFsIGVkZ2UtcGF0dGVybi1zb2xpZCBlZGdlLXRoaWNrbmVzcy1ub3JtYWwgZWRnZS1wYXR0ZXJuLXNvbGlkIGZsb3djaGFydC1saW5rIiBpZD0iTF9MX09fMTYiIGQ9Ik0xMTI0LjI2MSwxNDE4LjcxN0wxMTQyLjc2NiwxNDMzLjUzOUMxMTYxLjI3MiwxNDQ4LjM2LDExOTguMjgzLDE0NzguMDAyLDEyMTYuNzg4LDE0OTguMjE3QzEyMzUuMjk0LDE1MTguNDMyLDEyMzUuMjk0LDE1MjkuMjE4LDEyMzUuMjk0LDE1MzQuNjEyTDEyMzUuMjk0LDE1NDAuMDA1Ij48L3BhdGg+PHBhdGggbWFya2VyLWVuZD0idXJsKCNnZU1lcm1haWRPdXRwdXQtMTc0ODkyNzg0NzkwMV9mbG93Y2hhcnQtdjItcG9pbnRFbmQpIiBzdHlsZT0iIiBjbGFzcz0iZWRnZS10aGlja25lc3Mtbm9ybWFsIGVkZ2UtcGF0dGVybi1zb2xpZCBlZGdlLXRoaWNrbmVzcy1ub3JtYWwgZWRnZS1wYXR0ZXJuLXNvbGlkIGZsb3djaGFydC1saW5rIiBpZD0iTF9NX0VfMTciIGQ9Ik02NzMuOTg0LDE1NDQuMDA1TDY2OS4yNjEsMTUzNy45NDVDNjY0LjUzOCwxNTMxLjg4NSw2NTUuMDkxLDE1MTkuNzY1LDY1MC4zNjgsMTQ5MS43MDlDNjQ1LjY0NSwxNDYzLjY1Myw2NDUuNjQ1LDE0MTkuNjYsNjQ1LjY0NSwxMzc3LjU2MUM2NDUuNjQ1LDEzMzUuNDYyLDY0NS42NDUsMTI5NS4yNTYsNjQ1LjY0NSwxMjY2LjQ4N0M2NDUuNjQ1LDEyMzcuNzE3LDY0NS42NDUsMTIyMC4zODUsNjQ1LjY0NSwxMjAxLjE1OUM2NDUuNjQ1LDExODEuOTMzLDY0NS42NDUsMTE2MC44MTMsNjQ1LjY0NSwxMTMxLjY2OEM2NDUuNjQ1LDExMDIuNTIzLDY0NS42NDUsMTA2NS4zNTEsNjQ1LjY0NSwxMDMwLjA3M0M2NDUuNjQ1LDk5NC43OTUsNjQ1LjY0NSw5NjEuNDExLDY0NS42NDUsOTM2LjA1MkM2NDUuNjQ1LDkxMC42OTQsNjQ1LjY0NSw4OTMuMzYxLDY0NS42NDUsODc0LjEzNUM2NDUuNjQ1LDg1NC45MDksNjQ1LjY0NSw4MzMuNzg5LDY0NS42NDUsODAxLjg2OEM2NDUuNjQ1LDc2OS45NDcsNjQ1LjY0NSw3MjcuMjI0LDY0NS42NDUsNjg0LjUwMUM2NDUuNjQ1LDY0MS43NzgsNjQ1LjY0NSw1OTkuMDU0LDYzMi41MzgsNTcxLjkwMkM2MTkuNDMxLDU0NC43NSw1OTMuMjE3LDUzMy4xNjksNTgwLjExLDUyNy4zNzhMNTY3LjAwMyw1MjEuNTg4Ij48L3BhdGg+PHBhdGggbWFya2VyLWVuZD0idXJsKCNnZU1lcm1haWRPdXRwdXQtMTc0ODkyNzg0NzkwMV9mbG93Y2hhcnQtdjItcG9pbnRFbmQpIiBzdHlsZT0iIiBjbGFzcz0iZWRnZS10aGlja25lc3Mtbm9ybWFsIGVkZ2UtcGF0dGVybi1zb2xpZCBlZGdlLXRoaWNrbmVzcy1ub3JtYWwgZWRnZS1wYXR0ZXJuLXNvbGlkIGZsb3djaGFydC1saW5rIiBpZD0iTF9OX0VfMTgiIGQ9Ik05NDEuNjEzLDE1NDQuMDA1TDkzMi42MywxNTM3Ljk0NUM5MjMuNjQ2LDE1MzEuODg1LDkwNS42OCwxNTE5Ljc2NSw4OTYuNjk2LDE0OTEuNzA5Qzg4Ny43MTMsMTQ2My42NTMsODg3LjcxMywxNDE5LjY2LDg4Ny43MTMsMTM3Ny41NjFDODg3LjcxMywxMzM1LjQ2Miw4ODcuNzEzLDEyOTUuMjU2LDg4Ny43MTMsMTI2Ni40ODdDODg3LjcxMywxMjM3LjcxNyw4ODcuNzEzLDEyMjAuMzg1LDg4Ny43MTMsMTIwMS4xNTlDODg3LjcxMywxMTgxLjkzMyw4ODcuNzEzLDExNjAuODEzLDg4Ny43MTMsMTEzMS42NjhDODg3LjcxMywxMTAyLjUyMyw4ODcuNzEzLDEwNjUuMzUxLDg4Ny43MTMsMTAzMC4wNzNDODg3LjcxMyw5OTQuNzk1LDg4Ny43MTMsOTYxLjQxMSw4ODcuNzEzLDkzNi4wNTJDODg3LjcxMyw5MTAuNjk0LDg4Ny43MTMsODkzLjM2MSw4ODcuNzEzLDg3NC4xMzVDODg3LjcxMyw4NTQuOTA5LDg4Ny43MTMsODMzLjc4OSw4ODcuNzEzLDgwMS44NjhDODg3LjcxMyw3NjkuOTQ3LDg4Ny43MTMsNzI3LjIyNCw4ODcuNzEzLDY4NC41MDFDODg3LjcxMyw2NDEuNzc4LDg4Ny43MTMsNTk5LjA1NCw4NDEuNjgsNTcwLjEyN0M3OTUuNjQ4LDU0MS4xOTksNzAzLjU4Miw1MjYuMDY3LDY1Ny41NDksNTE4LjUwMUw2MTEuNTE3LDUxMC45MzUiPjwvcGF0aD48cGF0aCBtYXJrZXItZW5kPSJ1cmwoI2dlTWVybWFpZE91dHB1dC0xNzQ4OTI3ODQ3OTAxX2Zsb3djaGFydC12Mi1wb2ludEVuZCkiIHN0eWxlPSIiIGNsYXNzPSJlZGdlLXRoaWNrbmVzcy1ub3JtYWwgZWRnZS1wYXR0ZXJuLXNvbGlkIGVkZ2UtdGhpY2tuZXNzLW5vcm1hbCBlZGdlLXBhdHRlcm4tc29saWQgZmxvd2NoYXJ0LWxpbmsiIGlkPSJMX09fUF8xOSIgZD0iTTEyMzUuMjk0LDE1OTguMDAxTDEyMzUuMjk0LDE2MDIuMTY4QzEyMzUuMjk0LDE2MDYuMzM1LDEyMzUuMjk0LDE2MTQuNjY4LDEyMzUuMjk0LDE2MjIuMzM1QzEyMzUuMjk0LDE2MzAuMDAxLDEyMzUuMjk0LDE2MzcuMDAxLDEyMzUuMjk0LDE2NDAuNTAxTDEyMzUuMjk0LDE2NDQuMDAxIj48L3BhdGg+PHBhdGggbWFya2VyLWVuZD0idXJsKCNnZU1lcm1haWRPdXRwdXQtMTc0ODkyNzg0NzkwMV9mbG93Y2hhcnQtdjItcG9pbnRFbmQpIiBzdHlsZT0iIiBjbGFzcz0iZWRnZS10aGlja25lc3Mtbm9ybWFsIGVkZ2UtcGF0dGVybi1zb2xpZCBlZGdlLXRoaWNrbmVzcy1ub3JtYWwgZWRnZS1wYXR0ZXJuLXNvbGlkIGZsb3djaGFydC1saW5rIiBpZD0iTF9QX0RfMjAiIGQ9Ik0xMjM1LjI5NCwxNzAxLjk5OEwxMjM1LjI5NCwxNzA2LjE2NEMxMjM1LjI5NCwxNzEwLjMzMSwxMjM1LjI5NCwxNzE4LjY2NCwxMjQxLjE5NSwxNzI2LjYzNkMxMjQ3LjA5NSwxNzM0LjYwOCwxMjU4Ljg5NywxNzQyLjIxOSwxMjY0Ljc5NywxNzQ2LjAyNEwxMjcwLjY5OCwxNzQ5LjgzIj48L3BhdGg+PHBhdGggbWFya2VyLWVuZD0idXJsKCNnZU1lcm1haWRPdXRwdXQtMTc0ODkyNzg0NzkwMV9mbG93Y2hhcnQtdjItcG9pbnRFbmQpIiBzdHlsZT0iIiBjbGFzcz0iZWRnZS10aGlja25lc3Mtbm9ybWFsIGVkZ2UtcGF0dGVybi1zb2xpZCBlZGdlLXRoaWNrbmVzcy1ub3JtYWwgZWRnZS1wYXR0ZXJuLXNvbGlkIGZsb3djaGFydC1saW5rIiBpZD0iTF9EX1FfMjEiIGQ9Ik0xMzE1LjkyNCwxODA1Ljk5NEwxMzE1LjkyNCwxODEwLjE2QzEzMTUuOTI0LDE4MTQuMzI3LDEzMTUuOTI0LDE4MjIuNjYsMTMxNS45MjQsMTgzMC4zMjdDMTMxNS45MjQsMTgzNy45OTQsMTMxNS45MjQsMTg0NC45OTQsMTMxNS45MjQsMTg0OC40OTRMMTMxNS45MjQsMTg1MS45OTQiPjwvcGF0aD48cGF0aCBtYXJrZXItZW5kPSJ1cmwoI2dlTWVybWFpZE91dHB1dC0xNzQ4OTI3ODQ3OTAxX2Zsb3djaGFydC12Mi1wb2ludEVuZCkiIHN0eWxlPSIiIGNsYXNzPSJlZGdlLXRoaWNrbmVzcy1ub3JtYWwgZWRnZS1wYXR0ZXJuLXNvbGlkIGVkZ2UtdGhpY2tuZXNzLW5vcm1hbCBlZGdlLXBhdHRlcm4tc29saWQgZmxvd2NoYXJ0LWxpbmsiIGlkPSJMX1FfUl8yMiIgZD0iTTExODguMzc1LDE4OTguNzE1TDExMzkuMzMsMTkwNC43NjFDMTA5MC4yODQsMTkxMC44MDcsOTkyLjE5MiwxOTIyLjg5OCw5NDMuMTQ2LDE5MzIuNDQ0Qzg5NC4xMDEsMTk0MS45OSw4OTQuMTAxLDE5NDguOTksODk0LjEwMSwxOTUyLjQ5TDg5NC4xMDEsMTk1NS45OSI+PC9wYXRoPjxwYXRoIG1hcmtlci1lbmQ9InVybCgjZ2VNZXJtYWlkT3V0cHV0LTE3NDg5Mjc4NDc5MDFfZmxvd2NoYXJ0LXYyLXBvaW50RW5kKSIgc3R5bGU9IiIgY2xhc3M9ImVkZ2UtdGhpY2tuZXNzLW5vcm1hbCBlZGdlLXBhdHRlcm4tc29saWQgZWRnZS10aGlja25lc3Mtbm9ybWFsIGVkZ2UtcGF0dGVybi1zb2xpZCBmbG93Y2hhcnQtbGluayIgaWQ9IkxfUV9TXzIzIiBkPSJNMTI0NC4wMywxOTA5Ljk5TDEyMzIuOTM1LDE5MTQuMTU3QzEyMjEuODM5LDE5MTguMzIzLDExOTkuNjQ4LDE5MjYuNjU3LDExODguNTUzLDE5MzQuMzIzQzExNzcuNDU4LDE5NDEuOTksMTE3Ny40NTgsMTk0OC45OSwxMTc3LjQ1OCwxOTUyLjQ5TDExNzcuNDU4LDE5NTUuOTkiPjwvcGF0aD48cGF0aCBtYXJrZXItZW5kPSJ1cmwoI2dlTWVybWFpZE91dHB1dC0xNzQ4OTI3ODQ3OTAxX2Zsb3djaGFydC12Mi1wb2ludEVuZCkiIHN0eWxlPSIiIGNsYXNzPSJlZGdlLXRoaWNrbmVzcy1ub3JtYWwgZWRnZS1wYXR0ZXJuLXNvbGlkIGVkZ2UtdGhpY2tuZXNzLW5vcm1hbCBlZGdlLXBhdHRlcm4tc29saWQgZmxvd2NoYXJ0LWxpbmsiIGlkPSJMX1FfVF8yNCIgZD0iTTEzODcuODE4LDE5MDkuOTlMMTM5OC45MTMsMTkxNC4xNTdDMTQxMC4wMDksMTkxOC4zMjMsMTQzMi4yLDE5MjYuNjU3LDE0NDMuMjk1LDE5MzQuMzIzQzE0NTQuMzkxLDE5NDEuOTksMTQ1NC4zOTEsMTk0OC45OSwxNDU0LjM5MSwxOTUyLjQ5TDE0NTQuMzkxLDE5NTUuOTkiPjwvcGF0aD48cGF0aCBtYXJrZXItZW5kPSJ1cmwoI2dlTWVybWFpZE91dHB1dC0xNzQ4OTI3ODQ3OTAxX2Zsb3djaGFydC12Mi1wb2ludEVuZCkiIHN0eWxlPSIiIGNsYXNzPSJlZGdlLXRoaWNrbmVzcy1ub3JtYWwgZWRnZS1wYXR0ZXJuLXNvbGlkIGVkZ2UtdGhpY2tuZXNzLW5vcm1hbCBlZGdlLXBhdHRlcm4tc29saWQgZmxvd2NoYXJ0LWxpbmsiIGlkPSJMX1FfVV8yNSIgZD0iTTE0NDMuNDczLDE4OTkuMzVMMTQ4OS43ODgsMTkwNS4yOUMxNTM2LjEwNCwxOTExLjIzLDE2MjguNzM0LDE5MjMuMTEsMTY3NS4wNSwxOTMyLjU1QzE3MjEuMzY1LDE5NDEuOTksMTcyMS4zNjUsMTk0OC45OSwxNzIxLjM2NSwxOTUyLjQ5TDE3MjEuMzY1LDE5NTUuOTkiPjwvcGF0aD48cGF0aCBtYXJrZXItZW5kPSJ1cmwoI2dlTWVybWFpZE91dHB1dC0xNzQ4OTI3ODQ3OTAxX2Zsb3djaGFydC12Mi1wb2ludEVuZCkiIHN0eWxlPSIiIGNsYXNzPSJlZGdlLXRoaWNrbmVzcy1ub3JtYWwgZWRnZS1wYXR0ZXJuLXNvbGlkIGVkZ2UtdGhpY2tuZXNzLW5vcm1hbCBlZGdlLXBhdHRlcm4tc29saWQgZmxvd2NoYXJ0LWxpbmsiIGlkPSJMX1JfVl8yNiIgZD0iTTg5NC4xMDEsMjAxMy45ODZMODk0LjEwMSwyMDE4LjE1M0M4OTQuMTAxLDIwMjIuMzIsODk0LjEwMSwyMDMwLjY1Myw4OTQuMTAxLDIwMzguMzJDODk0LjEwMSwyMDQ1Ljk4Niw4OTQuMTAxLDIwNTIuOTg2LDg5NC4xMDEsMjA1Ni40ODZMODk0LjEwMSwyMDU5Ljk4NiI+PC9wYXRoPjxwYXRoIG1hcmtlci1lbmQ9InVybCgjZ2VNZXJtYWlkT3V0cHV0LTE3NDg5Mjc4NDc5MDFfZmxvd2NoYXJ0LXYyLXBvaW50RW5kKSIgc3R5bGU9IiIgY2xhc3M9ImVkZ2UtdGhpY2tuZXNzLW5vcm1hbCBlZGdlLXBhdHRlcm4tc29saWQgZWRnZS10aGlja25lc3Mtbm9ybWFsIGVkZ2UtcGF0dGVybi1zb2xpZCBmbG93Y2hhcnQtbGluayIgaWQ9IkxfU19XXzI3IiBkPSJNMTE3Ny40NTgsMjAxMy45ODZMMTE3Ny40NTgsMjAxOC4xNTNDMTE3Ny40NTgsMjAyMi4zMiwxMTc3LjQ1OCwyMDMwLjY1MywxMTc3LjQ1OCwyMDM4LjMyQzExNzcuNDU4LDIwNDUuOTg2LDExNzcuNDU4LDIwNTIuOTg2LDExNzcuNDU4LDIwNTYuNDg2TDExNzcuNDU4LDIwNTkuOTg2Ij48L3BhdGg+PHBhdGggbWFya2VyLWVuZD0idXJsKCNnZU1lcm1haWRPdXRwdXQtMTc0ODkyNzg0NzkwMV9mbG93Y2hhcnQtdjItcG9pbnRFbmQpIiBzdHlsZT0iIiBjbGFzcz0iZWRnZS10aGlja25lc3Mtbm9ybWFsIGVkZ2UtcGF0dGVybi1zb2xpZCBlZGdlLXRoaWNrbmVzcy1ub3JtYWwgZWRnZS1wYXR0ZXJuLXNvbGlkIGZsb3djaGFydC1saW5rIiBpZD0iTF9UX1hfMjgiIGQ9Ik0xNDU0LjM5MSwyMDEzLjk4NkwxNDU0LjM5MSwyMDE4LjE1M0MxNDU0LjM5MSwyMDIyLjMyLDE0NTQuMzkxLDIwMzAuNjUzLDE0NTQuMzkxLDIwMzguMzJDMTQ1NC4zOTEsMjA0NS45ODYsMTQ1NC4zOTEsMjA1Mi45ODYsMTQ1NC4zOTEsMjA1Ni40ODZMMTQ1NC4zOTEsMjA1OS45ODYiPjwvcGF0aD48cGF0aCBtYXJrZXItZW5kPSJ1cmwoI2dlTWVybWFpZE91dHB1dC0xNzQ4OTI3ODQ3OTAxX2Zsb3djaGFydC12Mi1wb2ludEVuZCkiIHN0eWxlPSIiIGNsYXNzPSJlZGdlLXRoaWNrbmVzcy1ub3JtYWwgZWRnZS1wYXR0ZXJuLXNvbGlkIGVkZ2UtdGhpY2tuZXNzLW5vcm1hbCBlZGdlLXBhdHRlcm4tc29saWQgZmxvd2NoYXJ0LWxpbmsiIGlkPSJMX1VfWV8yOSIgZD0iTTE3MjEuMzY1LDIwMTMuOTg2TDE3MjEuMzY1LDIwMTguMTUzQzE3MjEuMzY1LDIwMjIuMzIsMTcyMS4zNjUsMjAzMC42NTMsMTcyMS4zNjUsMjAzOC4zMkMxNzIxLjM2NSwyMDQ1Ljk4NiwxNzIxLjM2NSwyMDUyLjk4NiwxNzIxLjM2NSwyMDU2LjQ4NkwxNzIxLjM2NSwyMDU5Ljk4NiI+PC9wYXRoPjxwYXRoIG1hcmtlci1lbmQ9InVybCgjZ2VNZXJtYWlkT3V0cHV0LTE3NDg5Mjc4NDc5MDFfZmxvd2NoYXJ0LXYyLXBvaW50RW5kKSIgc3R5bGU9IiIgY2xhc3M9ImVkZ2UtdGhpY2tuZXNzLW5vcm1hbCBlZGdlLXBhdHRlcm4tc29saWQgZWRnZS10aGlja25lc3Mtbm9ybWFsIGVkZ2UtcGF0dGVybi1zb2xpZCBmbG93Y2hhcnQtbGluayIgaWQ9IkxfWV9aXzMwIiBkPSJNMTcyMS4zNjUsMjExNy45ODNMMTcyMS4zNjUsMjEyMi4xNDlDMTcyMS4zNjUsMjEyNi4zMTYsMTcyMS4zNjUsMjEzNC42NDksMTcyMC41ODcsMjE0Mi4zMzJDMTcxOS44MDksMjE1MC4wMTQsMTcxOC4yNTMsMjE1Ny4wNDUsMTcxNy40NzYsMjE2MC41NjFMMTcxNi42OTgsMjE2NC4wNzciPjwvcGF0aD48cGF0aCBtYXJrZXItZW5kPSJ1cmwoI2dlTWVybWFpZE91dHB1dC0xNzQ4OTI3ODQ3OTAxX2Zsb3djaGFydC12Mi1wb2ludEVuZCkiIHN0eWxlPSIiIGNsYXNzPSJlZGdlLXRoaWNrbmVzcy1ub3JtYWwgZWRnZS1wYXR0ZXJuLXNvbGlkIGVkZ2UtdGhpY2tuZXNzLW5vcm1hbCBlZGdlLXBhdHRlcm4tc29saWQgZmxvd2NoYXJ0LWxpbmsiIGlkPSJMX1pfQ18zMSIgZD0iTTE2NTYuOTk0LDIxNjcuOTgzTDE2NDguODM1LDIxNjMuODE2QzE2NDAuNjc2LDIxNTkuNjQ5LDE2MjQuMzU4LDIxNTEuMzE2LDE2MTYuMiwyMTM4LjQ4M0MxNjA4LjA0MSwyMTI1LjY1LDE2MDguMDQxLDIxMDguMzE3LDE2MDguMDQxLDIwOTAuOTg0QzE2MDguMDQxLDIwNzMuNjUyLDE2MDguMDQxLDIwNTYuMzE5LDE2MDguMDQxLDIwMzguOTg2QzE2MDguMDQxLDIwMjEuNjU0LDE2MDguMDQxLDIwMDQuMzIxLDE2MDguMDQxLDE5ODYuOTg4QzE2MDguMDQxLDE5NjkuNjU1LDE2MDguMDQxLDE5NTIuMzIzLDE2MDguMDQxLDE5MzQuOTlDMTYwOC4wNDEsMTkxNy42NTcsMTYwOC4wNDEsMTkwMC4zMjUsMTYwOC4wNDEsMTg4Mi45OTJDMTYwOC4wNDEsMTg2NS42NTksMTYwOC4wNDEsMTg0OC4zMjYsMTYwOC4wNDEsMTgzMC45OTRDMTYwOC4wNDEsMTgxMy42NjEsMTYwOC4wNDEsMTc5Ni4zMjgsMTYwOC4wNDEsMTc3OC45OTZDMTYwOC4wNDEsMTc2MS42NjMsMTYwOC4wNDEsMTc0NC4zMywxNjA4LjA0MSwxNzI2Ljk5OEMxNjA4LjA0MSwxNzA5LjY2NSwxNjA4LjA0MSwxNjkyLjMzMiwxNjA4LjA0MSwxNjc0Ljk5OUMxNjA4LjA0MSwxNjU3LjY2NywxNjA4LjA0MSwxNjQwLjMzNCwxNjA4LjA0MSwxNjIzLjAwMUMxNjA4LjA0MSwxNjA1LjY2OSwxNjA4LjA0MSwxNTg4LjMzNiwxNjA4LjA0MSwxNTY5LjExQzE2MDguMDQxLDE1NDkuODg0LDE2MDguMDQxLDE1MjguNzY0LDE2MDguMDQxLDE0OTYuMjA4QzE2MDguMDQxLDE0NjMuNjUzLDE2MDguMDQxLDE0MTkuNjYsMTYwOC4wNDEsMTM3Ny41NjFDMTYwOC4wNDEsMTMzNS40NjIsMTYwOC4wNDEsMTI5NS4yNTYsMTYwOC4wNDEsMTI2Ni40ODdDMTYwOC4wNDEsMTIzNy43MTcsMTYwOC4wNDEsMTIyMC4zODUsMTYwOC4wNDEsMTIwMS4xNTlDMTYwOC4wNDEsMTE4MS45MzMsMTYwOC4wNDEsMTE2MC44MTMsMTYwOC4wNDEsMTEzMS42NjhDMTYwOC4wNDEsMTEwMi41MjMsMTYwOC4wNDEsMTA2NS4zNTEsMTYwOC4wNDEsMTAzMC4wNzNDMTYwOC4wNDEsOTk0Ljc5NSwxNjA4LjA0MSw5NjEuNDExLDE2MDguMDQxLDkzNi4wNTJDMTYwOC4wNDEsOTEwLjY5NCwxNjA4LjA0MSw4OTMuMzYxLDE2MDguMDQxLDg3NC4xMzVDMTYwOC4wNDEsODU0LjkwOSwxNjA4LjA0MSw4MzMuNzg5LDE2MDguMDQxLDgwMS44NjhDMTYwOC4wNDEsNzY5Ljk0NywxNjA4LjA0MSw3MjcuMjI0LDE2MDguMDQxLDY4NC41MDFDMTYwOC4wNDEsNjQxLjc3OCwxNjA4LjA0MSw1OTkuMDU0LDE2MDguMDQxLDU2Ny4xMzNDMTYwOC4wNDEsNTM1LjIxMiwxNjA4LjA0MSw1MTQuMDkzLDE2MDguMDQxLDQ5NC44NjZDMTYwOC4wNDEsNDc1LjY0LDE2MDguMDQxLDQ1OC4zMDgsMTYwOC4wNDEsNDQ2LjE0MUMxNjA4LjA0MSw0MzMuOTc1LDE2MDguMDQxLDQyNi45NzUsMTYwOC4wNDEsNDIzLjQ3NUwxNjA4LjA0MSw0MTkuOTc1Ij48L3BhdGg+PC9nPjxnIGNsYXNzPSJlZGdlTGFiZWxzIj48Zz48cmVjdCBzdHlsZT0ic3Ryb2tlOiBub25lIiBjbGFzcz0iYmFja2dyb3VuZCI+PC9yZWN0PjwvZz48Zz48cmVjdCBzdHlsZT0ic3Ryb2tlOiBub25lIiBjbGFzcz0iYmFja2dyb3VuZCI+PC9yZWN0PjwvZz48Zz48cmVjdCBzdHlsZT0ic3Ryb2tlOiBub25lIiBjbGFzcz0iYmFja2dyb3VuZCI+PC9yZWN0PjwvZz48Zz48cmVjdCBzdHlsZT0ic3Ryb2tlOiBub25lIiBjbGFzcz0iYmFja2dyb3VuZCI+PC9yZWN0PjwvZz48Zz48cmVjdCBzdHlsZT0ic3Ryb2tlOiBub25lIiBjbGFzcz0iYmFja2dyb3VuZCI+PC9yZWN0PjwvZz48Zz48cmVjdCBzdHlsZT0ic3Ryb2tlOiBub25lIiBjbGFzcz0iYmFja2dyb3VuZCI+PC9yZWN0PjwvZz48Zz48cmVjdCBzdHlsZT0ic3Ryb2tlOiBub25lIiBjbGFzcz0iYmFja2dyb3VuZCI+PC9yZWN0PjwvZz48Zz48cmVjdCBzdHlsZT0ic3Ryb2tlOiBub25lIiBjbGFzcz0iYmFja2dyb3VuZCI+PC9yZWN0PjwvZz48Zz48cmVjdCBzdHlsZT0ic3Ryb2tlOiBub25lIiBjbGFzcz0iYmFja2dyb3VuZCI+PC9yZWN0PjwvZz48Zz48cmVjdCBzdHlsZT0ic3Ryb2tlOiBub25lIiBjbGFzcz0iYmFja2dyb3VuZCI+PC9yZWN0PjwvZz48Zz48cmVjdCBzdHlsZT0ic3Ryb2tlOiBub25lIiBjbGFzcz0iYmFja2dyb3VuZCI+PC9yZWN0PjwvZz48Zz48cmVjdCBzdHlsZT0ic3Ryb2tlOiBub25lIiBjbGFzcz0iYmFja2dyb3VuZCI+PC9yZWN0PjwvZz48Zz48cmVjdCBzdHlsZT0ic3Ryb2tlOiBub25lIiBjbGFzcz0iYmFja2dyb3VuZCI+PC9yZWN0PjwvZz48Zz48cmVjdCBzdHlsZT0ic3Ryb2tlOiBub25lIiBjbGFzcz0iYmFja2dyb3VuZCI+PC9yZWN0PjwvZz48Zz48cmVjdCBzdHlsZT0ic3Ryb2tlOiBub25lIiBjbGFzcz0iYmFja2dyb3VuZCI+PC9yZWN0PjwvZz48Zz48cmVjdCBzdHlsZT0ic3Ryb2tlOiBub25lIiBjbGFzcz0iYmFja2dyb3VuZCI+PC9yZWN0PjwvZz48Zz48cmVjdCBzdHlsZT0ic3Ryb2tlOiBub25lIiBjbGFzcz0iYmFja2dyb3VuZCI+PC9yZWN0PjwvZz48Zz48cmVjdCBzdHlsZT0ic3Ryb2tlOiBub25lIiBjbGFzcz0iYmFja2dyb3VuZCI+PC9yZWN0PjwvZz48Zz48cmVjdCBzdHlsZT0ic3Ryb2tlOiBub25lIiBjbGFzcz0iYmFja2dyb3VuZCI+PC9yZWN0PjwvZz48Zz48cmVjdCBzdHlsZT0ic3Ryb2tlOiBub25lIiBjbGFzcz0iYmFja2dyb3VuZCI+PC9yZWN0PjwvZz48Zz48cmVjdCBzdHlsZT0ic3Ryb2tlOiBub25lIiBjbGFzcz0iYmFja2dyb3VuZCI+PC9yZWN0PjwvZz48Zz48cmVjdCBzdHlsZT0ic3Ryb2tlOiBub25lIiBjbGFzcz0iYmFja2dyb3VuZCI+PC9yZWN0PjwvZz48ZyBjbGFzcz0iZWRnZUxhYmVsIj48ZyB0cmFuc2Zvcm09InRyYW5zbGF0ZSgwLCAwKSIgY2xhc3M9ImxhYmVsIj48dGV4dCB5PSItMTAuMSI+PHRzcGFuIGR5PSIxLjFlbSIgeT0iLTAuMWVtIiB4PSIwIiBjbGFzcz0idGV4dC1vdXRlci10c3BhbiI+PC90c3Bhbj48L3RleHQ+PC9nPjwvZz48ZyB0cmFuc2Zvcm09InRyYW5zbGF0ZSgxNjA4LjA0MDY0MTc4NDY2OCwgMzI1LjYxODc2Mjk2OTk3MDcpIiBjbGFzcz0iZWRnZUxhYmVsIj48ZyB0cmFuc2Zvcm09InRyYW5zbGF0ZSgtNjMuNDcwMDAxMjIwNzAzMTI1LCAtMTEuMzYwMDAwNjEwMzUxNTYyKSIgY2xhc3M9ImxhYmVsIj48Zz48cmVjdCBoZWlnaHQ9IjIyLjcyMDAwMTIyMDcwMzEyNSIgd2lkdGg9IjEyNi45NDAwMDI0NDE0MDYyNSIgeT0iLTEuMTE5OTk5MjI5OTA3OTg5NSIgeD0iLTIiIHN0eWxlPSIiIGNsYXNzPSJiYWNrZ3JvdW5kIj48L3JlY3Q+PHRleHQgc3R5bGU9IiIgeT0iLTEwLjEiPjx0c3BhbiBkeT0iMS4xZW0iIHk9Ii0wLjFlbSIgeD0iMCIgY2xhc3M9InRleHQtb3V0ZXItdHNwYW4iPjx0c3BhbiBmb250LXdlaWdodD0ibm9ybWFsIiBjbGFzcz0idGV4dC1pbm5lci10c3BhbiIgZm9udC1zdHlsZT0ibm9ybWFsIj5TZXNzaW9uPC90c3Bhbj48dHNwYW4gZm9udC13ZWlnaHQ9Im5vcm1hbCIgY2xhc3M9InRleHQtaW5uZXItdHNwYW4iIGZvbnQtc3R5bGU9Im5vcm1hbCI+IHRpZGFrPC90c3Bhbj48dHNwYW4gZm9udC13ZWlnaHQ9Im5vcm1hbCIgY2xhc3M9InRleHQtaW5uZXItdHNwYW4iIGZvbnQtc3R5bGU9Im5vcm1hbCI+IGFkYTwvdHNwYW4+PC90c3Bhbj48L3RleHQ+PC9nPjwvZz48L2c+PGcgdHJhbnNmb3JtPSJ0cmFuc2xhdGUoMTQ1NS44NjcyMTAzODgxODM2LCAxMDI4LjE4MDAxNTU2Mzk2NDgpIiBjbGFzcz0iZWRnZUxhYmVsIj48ZyB0cmFuc2Zvcm09InRyYW5zbGF0ZSgtNDIuOTEwNjI1NDU3NzYzNjcsIC0xMS4zNjAwMDA2MTAzNTE1NjIpIiBjbGFzcz0ibGFiZWwiPjxnPjxyZWN0IGhlaWdodD0iMjIuNzIwMDAxMjIwNzAzMTI1IiB3aWR0aD0iODUuODIxMjUwOTE1NTI3MzQiIHk9Ii0xLjExOTk5OTIyOTkwNzk4OTUiIHg9Ii0yIiBzdHlsZT0iIiBjbGFzcz0iYmFja2dyb3VuZCI+PC9yZWN0Pjx0ZXh0IHN0eWxlPSIiIHk9Ii0xMC4xIj48dHNwYW4gZHk9IjEuMWVtIiB5PSItMC4xZW0iIHg9IjAiIGNsYXNzPSJ0ZXh0LW91dGVyLXRzcGFuIj48dHNwYW4gZm9udC13ZWlnaHQ9Im5vcm1hbCIgY2xhc3M9InRleHQtaW5uZXItdHNwYW4iIGZvbnQtc3R5bGU9Im5vcm1hbCI+U2Vzc2lvbjwvdHNwYW4+PHRzcGFuIGZvbnQtd2VpZ2h0PSJub3JtYWwiIGNsYXNzPSJ0ZXh0LWlubmVyLXRzcGFuIiBmb250LXN0eWxlPSJub3JtYWwiPiBhZGE8L3RzcGFuPjwvdHNwYW4+PC90ZXh0PjwvZz48L2c+PC9nPjxnIGNsYXNzPSJlZGdlTGFiZWwiPjxnIHRyYW5zZm9ybT0idHJhbnNsYXRlKDAsIDApIiBjbGFzcz0ibGFiZWwiPjx0ZXh0IHk9Ii0xMC4xIj48dHNwYW4gZHk9IjEuMWVtIiB5PSItMC4xZW0iIHg9IjAiIGNsYXNzPSJ0ZXh0LW91dGVyLXRzcGFuIj48L3RzcGFuPjwvdGV4dD48L2c+PC9nPjxnIGNsYXNzPSJlZGdlTGFiZWwiPjxnIHRyYW5zZm9ybT0idHJhbnNsYXRlKDAsIDApIiBjbGFzcz0ibGFiZWwiPjx0ZXh0IHk9Ii0xMC4xIj48dHNwYW4gZHk9IjEuMWVtIiB5PSItMC4xZW0iIHg9IjAiIGNsYXNzPSJ0ZXh0LW91dGVyLXRzcGFuIj48L3RzcGFuPjwvdGV4dD48L2c+PC9nPjxnIHRyYW5zZm9ybT0idHJhbnNsYXRlKDUwMi4yMzQwNjIxOTQ4MjQyLCA4MTIuNjcwMDA5NjEzMDM3MSkiIGNsYXNzPSJlZGdlTGFiZWwiPjxnIHRyYW5zZm9ybT0idHJhbnNsYXRlKC0xMC4wMjY4NzU0OTU5MTA2NDUsIC0xMS4zNjAwMDA2MTAzNTE1NjIpIiBjbGFzcz0ibGFiZWwiPjxnPjxyZWN0IGhlaWdodD0iMjIuNzIwMDAxMjIwNzAzMTI1IiB3aWR0aD0iMjAuMDUzNzUwOTkxODIxMjkiIHk9Ii0xLjExOTk5OTIyOTkwNzk4OTUiIHg9Ii0yIiBzdHlsZT0iIiBjbGFzcz0iYmFja2dyb3VuZCI+PC9yZWN0Pjx0ZXh0IHN0eWxlPSIiIHk9Ii0xMC4xIj48dHNwYW4gZHk9IjEuMWVtIiB5PSItMC4xZW0iIHg9IjAiIGNsYXNzPSJ0ZXh0LW91dGVyLXRzcGFuIj48dHNwYW4gZm9udC13ZWlnaHQ9Im5vcm1hbCIgY2xhc3M9InRleHQtaW5uZXItdHNwYW4iIGZvbnQtc3R5bGU9Im5vcm1hbCI+WWE8L3RzcGFuPjwvdHNwYW4+PC90ZXh0PjwvZz48L2c+PC9nPjxnIHRyYW5zZm9ybT0idHJhbnNsYXRlKDQxMy40ODQ2ODQ5NDQxNTI4MywgNTU2LjMzMTI2NDQ5NTg0OTYpIiBjbGFzcz0iZWRnZUxhYmVsIj48ZyB0cmFuc2Zvcm09InRyYW5zbGF0ZSgtMjEuMjg4MTI1OTkxODIxMjksIC0xMS4zNjAwMDA2MTAzNTE1NjIpIiBjbGFzcz0ibGFiZWwiPjxnPjxyZWN0IGhlaWdodD0iMjIuNzIwMDAxMjIwNzAzMTI1IiB3aWR0aD0iNDIuNTc2MjUxOTgzNjQyNTgiIHk9Ii0xLjExOTk5OTIyOTkwNzk4OTUiIHg9Ii0yIiBzdHlsZT0iIiBjbGFzcz0iYmFja2dyb3VuZCI+PC9yZWN0Pjx0ZXh0IHN0eWxlPSIiIHk9Ii0xMC4xIj48dHNwYW4gZHk9IjEuMWVtIiB5PSItMC4xZW0iIHg9IjAiIGNsYXNzPSJ0ZXh0LW91dGVyLXRzcGFuIj48dHNwYW4gZm9udC13ZWlnaHQ9Im5vcm1hbCIgY2xhc3M9InRleHQtaW5uZXItdHNwYW4iIGZvbnQtc3R5bGU9Im5vcm1hbCI+VGlkYWs8L3RzcGFuPjwvdHNwYW4+PC90ZXh0PjwvZz48L2c+PC9nPjxnIGNsYXNzPSJlZGdlTGFiZWwiPjxnIHRyYW5zZm9ybT0idHJhbnNsYXRlKDAsIDApIiBjbGFzcz0ibGFiZWwiPjx0ZXh0IHk9Ii0xMC4xIj48dHNwYW4gZHk9IjEuMWVtIiB5PSItMC4xZW0iIHg9IjAiIGNsYXNzPSJ0ZXh0LW91dGVyLXRzcGFuIj48L3RzcGFuPjwvdGV4dD48L2c+PC9nPjxnIHRyYW5zZm9ybT0idHJhbnNsYXRlKDI0NS4zMDIxODUwNTg1OTM3NSwgMTEzOS42OTM3NzEzNjIzMDQ3KSIgY2xhc3M9ImVkZ2VMYWJlbCI+PGcgdHJhbnNmb3JtPSJ0cmFuc2xhdGUoLTY0LjEzMzc1MDkxNTUyNzM0LCAtMTEuMzYwMDAwNjEwMzUxNTYyKSIgY2xhc3M9ImxhYmVsIj48Zz48cmVjdCBoZWlnaHQ9IjIyLjcyMDAwMTIyMDcwMzEyNSIgd2lkdGg9IjEyOC4yNjc1MDE4MzEwNTQ3IiB5PSItMS4xMTk5OTkyMjk5MDc5ODk1IiB4PSItMiIgc3R5bGU9IiIgY2xhc3M9ImJhY2tncm91bmQiPjwvcmVjdD48dGV4dCBzdHlsZT0iIiB5PSItMTAuMSI+PHRzcGFuIGR5PSIxLjFlbSIgeT0iLTAuMWVtIiB4PSIwIiBjbGFzcz0idGV4dC1vdXRlci10c3BhbiI+PHRzcGFuIGZvbnQtd2VpZ2h0PSJub3JtYWwiIGNsYXNzPSJ0ZXh0LWlubmVyLXRzcGFuIiBmb250LXN0eWxlPSJub3JtYWwiPlVzZXJuYW1lPC90c3Bhbj48dHNwYW4gZm9udC13ZWlnaHQ9Im5vcm1hbCIgY2xhc3M9InRleHQtaW5uZXItdHNwYW4iIGZvbnQtc3R5bGU9Im5vcm1hbCI+IGtvc29uZzwvdHNwYW4+PC90c3Bhbj48L3RleHQ+PC9nPjwvZz48L2c+PGcgdHJhbnNmb3JtPSJ0cmFuc2xhdGUoNTAyLjIzNDA2MjE5NDgyNDIsIDExMzkuNjkzNzcxMzYyMzA0NykiIGNsYXNzPSJlZGdlTGFiZWwiPjxnIHRyYW5zZm9ybT0idHJhbnNsYXRlKC02MS4yMzY4Nzc0NDE0MDYyNSwgLTExLjM2MDAwMDYxMDM1MTU2MikiIGNsYXNzPSJsYWJlbCI+PGc+PHJlY3QgaGVpZ2h0PSIyMi43MjAwMDEyMjA3MDMxMjUiIHdpZHRoPSIxMjIuNDczNzU0ODgyODEyNSIgeT0iLTEuMTE5OTk5MjI5OTA3OTg5NSIgeD0iLTIiIHN0eWxlPSIiIGNsYXNzPSJiYWNrZ3JvdW5kIj48L3JlY3Q+PHRleHQgc3R5bGU9IiIgeT0iLTEwLjEiPjx0c3BhbiBkeT0iMS4xZW0iIHk9Ii0wLjFlbSIgeD0iMCIgY2xhc3M9InRleHQtb3V0ZXItdHNwYW4iPjx0c3BhbiBmb250LXdlaWdodD0ibm9ybWFsIiBjbGFzcz0idGV4dC1pbm5lci10c3BhbiIgZm9udC1zdHlsZT0ibm9ybWFsIj5QYXNzd29yZDwvdHNwYW4+PHRzcGFuIGZvbnQtd2VpZ2h0PSJub3JtYWwiIGNsYXNzPSJ0ZXh0LWlubmVyLXRzcGFuIiBmb250LXN0eWxlPSJub3JtYWwiPiBrb3Nvbmc8L3RzcGFuPjwvdHNwYW4+PC90ZXh0PjwvZz48L2c+PC9nPjxnIHRyYW5zZm9ybT0idHJhbnNsYXRlKDEwNzAuNjkzMTM0MzA3ODYxMywgMTEzOS42OTM3NzEzNjIzMDQ3KSIgY2xhc3M9ImVkZ2VMYWJlbCI+PGcgdHJhbnNmb3JtPSJ0cmFuc2xhdGUoLTQwLjIyNzUwMDkxNTUyNzM0NCwgLTExLjM2MDAwMDYxMDM1MTU2MikiIGNsYXNzPSJsYWJlbCI+PGc+PHJlY3QgaGVpZ2h0PSIyMi43MjAwMDEyMjA3MDMxMjUiIHdpZHRoPSI4MC40NTUwMDE4MzEwNTQ2OSIgeT0iLTEuMTE5OTk5MjI5OTA3OTg5NSIgeD0iLTIiIHN0eWxlPSIiIGNsYXNzPSJiYWNrZ3JvdW5kIj48L3JlY3Q+PHRleHQgc3R5bGU9IiIgeT0iLTEwLjEiPjx0c3BhbiBkeT0iMS4xZW0iIHk9Ii0wLjFlbSIgeD0iMCIgY2xhc3M9InRleHQtb3V0ZXItdHNwYW4iPjx0c3BhbiBmb250LXdlaWdodD0ibm9ybWFsIiBjbGFzcz0idGV4dC1pbm5lci10c3BhbiIgZm9udC1zdHlsZT0ibm9ybWFsIj5JbnB1dDwvdHNwYW4+PHRzcGFuIGZvbnQtd2VpZ2h0PSJub3JtYWwiIGNsYXNzPSJ0ZXh0LWlubmVyLXRzcGFuIiBmb250LXN0eWxlPSJub3JtYWwiPiB2YWxpZDwvdHNwYW4+PC90c3Bhbj48L3RleHQ+PC9nPjwvZz48L2c+PGcgY2xhc3M9ImVkZ2VMYWJlbCI+PGcgdHJhbnNmb3JtPSJ0cmFuc2xhdGUoMCwgMCkiIGNsYXNzPSJsYWJlbCI+PHRleHQgeT0iLTEwLjEiPjx0c3BhbiBkeT0iMS4xZW0iIHk9Ii0wLjFlbSIgeD0iMCIgY2xhc3M9InRleHQtb3V0ZXItdHNwYW4iPjwvdHNwYW4+PC90ZXh0PjwvZz48L2c+PGcgY2xhc3M9ImVkZ2VMYWJlbCI+PGcgdHJhbnNmb3JtPSJ0cmFuc2xhdGUoMCwgMCkiIGNsYXNzPSJsYWJlbCI+PHRleHQgeT0iLTEwLjEiPjx0c3BhbiBkeT0iMS4xZW0iIHk9Ii0wLjFlbSIgeD0iMCIgY2xhc3M9InRleHQtb3V0ZXItdHNwYW4iPjwvdHNwYW4+PC90ZXh0PjwvZz48L2c+PGcgY2xhc3M9ImVkZ2VMYWJlbCI+PGcgdHJhbnNmb3JtPSJ0cmFuc2xhdGUoMCwgMCkiIGNsYXNzPSJsYWJlbCI+PHRleHQgeT0iLTEwLjEiPjx0c3BhbiBkeT0iMS4xZW0iIHk9Ii0wLjFlbSIgeD0iMCIgY2xhc3M9InRleHQtb3V0ZXItdHNwYW4iPjwvdHNwYW4+PC90ZXh0PjwvZz48L2c+PGcgdHJhbnNmb3JtPSJ0cmFuc2xhdGUoNzg4Ljk0ODc2NDgwMTAyNTQsIDE1MDcuNjQ1MDIzMzQ1OTQ3MykiIGNsYXNzPSJlZGdlTGFiZWwiPjxnIHRyYW5zZm9ybT0idHJhbnNsYXRlKC03OC43NjQzNzM3NzkyOTY4OCwgLTExLjM2MDAwMDYxMDM1MTU2MikiIGNsYXNzPSJsYWJlbCI+PGc+PHJlY3QgaGVpZ2h0PSIyMi43MjAwMDEyMjA3MDMxMjUiIHdpZHRoPSIxNTcuNTI4NzQ3NTU4NTkzNzUiIHk9Ii0xLjExOTk5OTIyOTkwNzk4OTUiIHg9Ii0yIiBzdHlsZT0iIiBjbGFzcz0iYmFja2dyb3VuZCI+PC9yZWN0Pjx0ZXh0IHN0eWxlPSIiIHk9Ii0xMC4xIj48dHNwYW4gZHk9IjEuMWVtIiB5PSItMC4xZW0iIHg9IjAiIGNsYXNzPSJ0ZXh0LW91dGVyLXRzcGFuIj48dHNwYW4gZm9udC13ZWlnaHQ9Im5vcm1hbCIgY2xhc3M9InRleHQtaW5uZXItdHNwYW4iIGZvbnQtc3R5bGU9Im5vcm1hbCI+VXNlcjwvdHNwYW4+PHRzcGFuIGZvbnQtd2VpZ2h0PSJub3JtYWwiIGNsYXNzPSJ0ZXh0LWlubmVyLXRzcGFuIiBmb250LXN0eWxlPSJub3JtYWwiPiB0aWRhazwvdHNwYW4+PHRzcGFuIGZvbnQtd2VpZ2h0PSJub3JtYWwiIGNsYXNzPSJ0ZXh0LWlubmVyLXRzcGFuIiBmb250LXN0eWxlPSJub3JtYWwiPiBkaXRlbXVrYW48L3RzcGFuPjwvdHNwYW4+PC90ZXh0PjwvZz48L2c+PC9nPjxnIHRyYW5zZm9ybT0idHJhbnNsYXRlKDEwNDguNDg2ODk2NTE0ODkyNiwgMTUwNy42NDUwMjMzNDU5NDczKSIgY2xhc3M9ImVkZ2VMYWJlbCI+PGcgdHJhbnNmb3JtPSJ0cmFuc2xhdGUoLTU1LjM2NDM3NjA2ODExNTIzNCwgLTExLjM2MDAwMDYxMDM1MTU2MikiIGNsYXNzPSJsYWJlbCI+PGc+PHJlY3QgaGVpZ2h0PSIyMi43MjAwMDEyMjA3MDMxMjUiIHdpZHRoPSIxMTAuNzI4NzU5NzY1NjI1IiB5PSItMS4xMTk5OTkyMjk5MDc5ODk1IiB4PSItMiIgc3R5bGU9IiIgY2xhc3M9ImJhY2tncm91bmQiPjwvcmVjdD48dGV4dCBzdHlsZT0iIiB5PSItMTAuMSI+PHRzcGFuIGR5PSIxLjFlbSIgeT0iLTAuMWVtIiB4PSIwIiBjbGFzcz0idGV4dC1vdXRlci10c3BhbiI+PHRzcGFuIGZvbnQtd2VpZ2h0PSJub3JtYWwiIGNsYXNzPSJ0ZXh0LWlubmVyLXRzcGFuIiBmb250LXN0eWxlPSJub3JtYWwiPlBhc3N3b3JkPC90c3Bhbj48dHNwYW4gZm9udC13ZWlnaHQ9Im5vcm1hbCIgY2xhc3M9InRleHQtaW5uZXItdHNwYW4iIGZvbnQtc3R5bGU9Im5vcm1hbCI+IHNhbGFoPC90c3Bhbj48L3RzcGFuPjwvdGV4dD48L2c+PC9nPjwvZz48ZyB0cmFuc2Zvcm09InRyYW5zbGF0ZSgxMjM1LjI5Mzc4MTI4MDUxNzYsIDE1MDcuNjQ1MDIzMzQ1OTQ3MykiIGNsYXNzPSJlZGdlTGFiZWwiPjxnIHRyYW5zZm9ybT0idHJhbnNsYXRlKC01MS44MDM3NTI4OTkxNjk5MiwgLTExLjM2MDAwMDYxMDM1MTU2MikiIGNsYXNzPSJsYWJlbCI+PGc+PHJlY3QgaGVpZ2h0PSIyMi43MjAwMDEyMjA3MDMxMjUiIHdpZHRoPSIxMDMuNjA3NTA1Nzk4MzM5ODQiIHk9Ii0xLjExOTk5OTIyOTkwNzk4OTUiIHg9Ii0yIiBzdHlsZT0iIiBjbGFzcz0iYmFja2dyb3VuZCI+PC9yZWN0Pjx0ZXh0IHN0eWxlPSIiIHk9Ii0xMC4xIj48dHNwYW4gZHk9IjEuMWVtIiB5PSItMC4xZW0iIHg9IjAiIGNsYXNzPSJ0ZXh0LW91dGVyLXRzcGFuIj48dHNwYW4gZm9udC13ZWlnaHQ9Im5vcm1hbCIgY2xhc3M9InRleHQtaW5uZXItdHNwYW4iIGZvbnQtc3R5bGU9Im5vcm1hbCI+TG9naW48L3RzcGFuPjx0c3BhbiBmb250LXdlaWdodD0ibm9ybWFsIiBjbGFzcz0idGV4dC1pbm5lci10c3BhbiIgZm9udC1zdHlsZT0ibm9ybWFsIj4gYmVyaGFzaWw8L3RzcGFuPjwvdHNwYW4+PC90ZXh0PjwvZz48L2c+PC9nPjxnIGNsYXNzPSJlZGdlTGFiZWwiPjxnIHRyYW5zZm9ybT0idHJhbnNsYXRlKDAsIDApIiBjbGFzcz0ibGFiZWwiPjx0ZXh0IHk9Ii0xMC4xIj48dHNwYW4gZHk9IjEuMWVtIiB5PSItMC4xZW0iIHg9IjAiIGNsYXNzPSJ0ZXh0LW91dGVyLXRzcGFuIj48L3RzcGFuPjwvdGV4dD48L2c+PC9nPjxnIGNsYXNzPSJlZGdlTGFiZWwiPjxnIHRyYW5zZm9ybT0idHJhbnNsYXRlKDAsIDApIiBjbGFzcz0ibGFiZWwiPjx0ZXh0IHk9Ii0xMC4xIj48dHNwYW4gZHk9IjEuMWVtIiB5PSItMC4xZW0iIHg9IjAiIGNsYXNzPSJ0ZXh0LW91dGVyLXRzcGFuIj48L3RzcGFuPjwvdGV4dD48L2c+PC9nPjxnIGNsYXNzPSJlZGdlTGFiZWwiPjxnIHRyYW5zZm9ybT0idHJhbnNsYXRlKDAsIDApIiBjbGFzcz0ibGFiZWwiPjx0ZXh0IHk9Ii0xMC4xIj48dHNwYW4gZHk9IjEuMWVtIiB5PSItMC4xZW0iIHg9IjAiIGNsYXNzPSJ0ZXh0LW91dGVyLXRzcGFuIj48L3RzcGFuPjwvdGV4dD48L2c+PC9nPjxnIGNsYXNzPSJlZGdlTGFiZWwiPjxnIHRyYW5zZm9ybT0idHJhbnNsYXRlKDAsIDApIiBjbGFzcz0ibGFiZWwiPjx0ZXh0IHk9Ii0xMC4xIj48dHNwYW4gZHk9IjEuMWVtIiB5PSItMC4xZW0iIHg9IjAiIGNsYXNzPSJ0ZXh0LW91dGVyLXRzcGFuIj48L3RzcGFuPjwvdGV4dD48L2c+PC9nPjxnIGNsYXNzPSJlZGdlTGFiZWwiPjxnIHRyYW5zZm9ybT0idHJhbnNsYXRlKDAsIDApIiBjbGFzcz0ibGFiZWwiPjx0ZXh0IHk9Ii0xMC4xIj48dHNwYW4gZHk9IjEuMWVtIiB5PSItMC4xZW0iIHg9IjAiIGNsYXNzPSJ0ZXh0LW91dGVyLXRzcGFuIj48L3RzcGFuPjwvdGV4dD48L2c+PC9nPjxnIGNsYXNzPSJlZGdlTGFiZWwiPjxnIHRyYW5zZm9ybT0idHJhbnNsYXRlKDAsIDApIiBjbGFzcz0ibGFiZWwiPjx0ZXh0IHk9Ii0xMC4xIj48dHNwYW4gZHk9IjEuMWVtIiB5PSItMC4xZW0iIHg9IjAiIGNsYXNzPSJ0ZXh0LW91dGVyLXRzcGFuIj48L3RzcGFuPjwvdGV4dD48L2c+PC9nPjxnIGNsYXNzPSJlZGdlTGFiZWwiPjxnIHRyYW5zZm9ybT0idHJhbnNsYXRlKDAsIDApIiBjbGFzcz0ibGFiZWwiPjx0ZXh0IHk9Ii0xMC4xIj48dHNwYW4gZHk9IjEuMWVtIiB5PSItMC4xZW0iIHg9IjAiIGNsYXNzPSJ0ZXh0LW91dGVyLXRzcGFuIj48L3RzcGFuPjwvdGV4dD48L2c+PC9nPjxnIGNsYXNzPSJlZGdlTGFiZWwiPjxnIHRyYW5zZm9ybT0idHJhbnNsYXRlKDAsIDApIiBjbGFzcz0ibGFiZWwiPjx0ZXh0IHk9Ii0xMC4xIj48dHNwYW4gZHk9IjEuMWVtIiB5PSItMC4xZW0iIHg9IjAiIGNsYXNzPSJ0ZXh0LW91dGVyLXRzcGFuIj48L3RzcGFuPjwvdGV4dD48L2c+PC9nPjxnIGNsYXNzPSJlZGdlTGFiZWwiPjxnIHRyYW5zZm9ybT0idHJhbnNsYXRlKDAsIDApIiBjbGFzcz0ibGFiZWwiPjx0ZXh0IHk9Ii0xMC4xIj48dHNwYW4gZHk9IjEuMWVtIiB5PSItMC4xZW0iIHg9IjAiIGNsYXNzPSJ0ZXh0LW91dGVyLXRzcGFuIj48L3RzcGFuPjwvdGV4dD48L2c+PC9nPjxnIGNsYXNzPSJlZGdlTGFiZWwiPjxnIHRyYW5zZm9ybT0idHJhbnNsYXRlKDAsIDApIiBjbGFzcz0ibGFiZWwiPjx0ZXh0IHk9Ii0xMC4xIj48dHNwYW4gZHk9IjEuMWVtIiB5PSItMC4xZW0iIHg9IjAiIGNsYXNzPSJ0ZXh0LW91dGVyLXRzcGFuIj48L3RzcGFuPjwvdGV4dD48L2c+PC9nPjxnIGNsYXNzPSJlZGdlTGFiZWwiPjxnIHRyYW5zZm9ybT0idHJhbnNsYXRlKDAsIDApIiBjbGFzcz0ibGFiZWwiPjx0ZXh0IHk9Ii0xMC4xIj48dHNwYW4gZHk9IjEuMWVtIiB5PSItMC4xZW0iIHg9IjAiIGNsYXNzPSJ0ZXh0LW91dGVyLXRzcGFuIj48L3RzcGFuPjwvdGV4dD48L2c+PC9nPjxnIGNsYXNzPSJlZGdlTGFiZWwiPjxnIHRyYW5zZm9ybT0idHJhbnNsYXRlKDAsIDApIiBjbGFzcz0ibGFiZWwiPjx0ZXh0IHk9Ii0xMC4xIj48dHNwYW4gZHk9IjEuMWVtIiB5PSItMC4xZW0iIHg9IjAiIGNsYXNzPSJ0ZXh0LW91dGVyLXRzcGFuIj48L3RzcGFuPjwvdGV4dD48L2c+PC9nPjxnIGNsYXNzPSJlZGdlTGFiZWwiPjxnIHRyYW5zZm9ybT0idHJhbnNsYXRlKDAsIDApIiBjbGFzcz0ibGFiZWwiPjx0ZXh0IHk9Ii0xMC4xIj48dHNwYW4gZHk9IjEuMWVtIiB5PSItMC4xZW0iIHg9IjAiIGNsYXNzPSJ0ZXh0LW91dGVyLXRzcGFuIj48L3RzcGFuPjwvdGV4dD48L2c+PC9nPjxnIGNsYXNzPSJlZGdlTGFiZWwiPjxnIHRyYW5zZm9ybT0idHJhbnNsYXRlKDAsIDApIiBjbGFzcz0ibGFiZWwiPjx0ZXh0IHk9Ii0xMC4xIj48dHNwYW4gZHk9IjEuMWVtIiB5PSItMC4xZW0iIHg9IjAiIGNsYXNzPSJ0ZXh0LW91dGVyLXRzcGFuIj48L3RzcGFuPjwvdGV4dD48L2c+PC9nPjxnIGNsYXNzPSJlZGdlTGFiZWwiPjxnIHRyYW5zZm9ybT0idHJhbnNsYXRlKDAsIDApIiBjbGFzcz0ibGFiZWwiPjx0ZXh0IHk9Ii0xMC4xIj48dHNwYW4gZHk9IjEuMWVtIiB5PSItMC4xZW0iIHg9IjAiIGNsYXNzPSJ0ZXh0LW91dGVyLXRzcGFuIj48L3RzcGFuPjwvdGV4dD48L2c+PC9nPjwvZz48ZyBjbGFzcz0ibm9kZXMiPjxnIHRyYW5zZm9ybT0idHJhbnNsYXRlKDE1OTYuNTM1NjYzNjA0NzM2MywgMzQuOTk4MTI1MDc2MjkzOTQ1KSIgaWQ9ImZsb3djaGFydC1BLTEzNiIgY2xhc3M9Im5vZGUgZGVmYXVsdCI+PHJlY3QgaGVpZ2h0PSI1My45OTYyNTAxNTI1ODc4OSIgd2lkdGg9IjY4LjM5MjQ5OTkyMzcwNjA1IiB5PSItMjYuOTk4MTI1MDc2MjkzOTQ1IiB4PSItMzQuMTk2MjQ5OTYxODUzMDMiIHN0eWxlPSIiIGNsYXNzPSJiYXNpYyBsYWJlbC1jb250YWluZXIiPjwvcmVjdD48ZyB0cmFuc2Zvcm09InRyYW5zbGF0ZSgtNC4xOTYyNDk5NjE4NTMwMjcsIC0xMS45OTgxMjUwNzYyOTM5NDUpIiBzdHlsZT0iIiBjbGFzcz0ibGFiZWwiPjxyZWN0PjwvcmVjdD48Zm9yZWlnbk9iamVjdCBoZWlnaHQ9IjIzLjk5NjI1MDE1MjU4Nzg5IiB3aWR0aD0iOC4zOTI0OTk5MjM3MDYwNTUiPjxkaXYgc3R5bGU9ImRpc3BsYXk6IHRhYmxlLWNlbGw7IHdoaXRlLXNwYWNlOiBub3dyYXA7IGxpbmUtaGVpZ2h0OiAxLjU7IG1heC13aWR0aDogMjAwcHg7IHRleHQtYWxpZ246IGNlbnRlcjsiIHhtbG5zPSJodHRwOi8vd3d3LnczLm9yZy8xOTk5L3hodG1sIj48c3BhbiBjbGFzcz0ibm9kZUxhYmVsIj48cD4xPC9wPjwvc3Bhbj48L2Rpdj48L2ZvcmVpZ25PYmplY3Q+PC9nPjwvZz48ZyB0cmFuc2Zvcm09InRyYW5zbGF0ZSgxNTk2LjUzNTY2MzYwNDczNjMsIDIwMC42Mjc1MDYyNTYxMDM1MikiIGlkPSJmbG93Y2hhcnQtQi0xMzciIGNsYXNzPSJub2RlIGRlZmF1bHQiPjxwb2x5Z29uIHRyYW5zZm9ybT0idHJhbnNsYXRlKC04OC42MzEyNTQxOTYxNjY5OSw4OC42MzEyNTQxOTYxNjY5OSkiIGNsYXNzPSJsYWJlbC1jb250YWluZXIiIHBvaW50cz0iODguNjMxMjU0MTk2MTY2OTksMCAxNzcuMjYyNTA4MzkyMzMzOTgsLTg4LjYzMTI1NDE5NjE2Njk5IDg4LjYzMTI1NDE5NjE2Njk5LC0xNzcuMjYyNTA4MzkyMzMzOTggMCwtODguNjMxMjU0MTk2MTY2OTkiPjwvcG9seWdvbj48ZyB0cmFuc2Zvcm09InRyYW5zbGF0ZSgtNjEuNjMzMTI5MTE5ODczMDUsIC0xMS45OTgxMjUwNzYyOTM5NDUpIiBzdHlsZT0iIiBjbGFzcz0ibGFiZWwiPjxyZWN0PjwvcmVjdD48Zm9yZWlnbk9iamVjdCBoZWlnaHQ9IjIzLjk5NjI1MDE1MjU4Nzg5IiB3aWR0aD0iMTIzLjI2NjI1ODIzOTc0NjEiPjxkaXYgc3R5bGU9ImRpc3BsYXk6IHRhYmxlLWNlbGw7IHdoaXRlLXNwYWNlOiBub3dyYXA7IGxpbmUtaGVpZ2h0OiAxLjU7IG1heC13aWR0aDogMjAwcHg7IHRleHQtYWxpZ246IGNlbnRlcjsiIHhtbG5zPSJodHRwOi8vd3d3LnczLm9yZy8xOTk5L3hodG1sIj48c3BhbiBjbGFzcz0ibm9kZUxhYmVsIj48cD5DZWsgU0VTU0lPTiB1c2VyPC9wPjwvc3Bhbj48L2Rpdj48L2ZvcmVpZ25PYmplY3Q+PC9nPjwvZz48ZyB0cmFuc2Zvcm09InRyYW5zbGF0ZSgxNjA4LjA0MDY0MTc4NDY2OCwgMzg4Ljk3Njg4ODY1NjYxNjIpIiBpZD0iZmxvd2NoYXJ0LUMtMTM5IiBjbGFzcz0ibm9kZSBkZWZhdWx0Ij48cmVjdCBoZWlnaHQ9IjUzLjk5NjI1MDE1MjU4Nzg5IiB3aWR0aD0iMjEzLjU5NjI1MjQ0MTQwNjI1IiB5PSItMjYuOTk4MTI1MDc2MjkzOTQ1IiB4PSItMTA2Ljc5ODEyNjIyMDcwMzEyIiBzdHlsZT0iIiBjbGFzcz0iYmFzaWMgbGFiZWwtY29udGFpbmVyIj48L3JlY3Q+PGcgdHJhbnNmb3JtPSJ0cmFuc2xhdGUoLTc2Ljc5ODEyNjIyMDcwMzEyLCAtMTEuOTk4MTI1MDc2MjkzOTQ1KSIgc3R5bGU9IiIgY2xhc3M9ImxhYmVsIj48cmVjdD48L3JlY3Q+PGZvcmVpZ25PYmplY3QgaGVpZ2h0PSIyMy45OTYyNTAxNTI1ODc4OSIgd2lkdGg9IjE1My41OTYyNTI0NDE0MDYyNSI+PGRpdiBzdHlsZT0iZGlzcGxheTogdGFibGUtY2VsbDsgd2hpdGUtc3BhY2U6IG5vd3JhcDsgbGluZS1oZWlnaHQ6IDEuNTsgbWF4LXdpZHRoOiAyMDBweDsgdGV4dC1hbGlnbjogY2VudGVyOyIgeG1sbnM9Imh0dHA6Ly93d3cudzMub3JnLzE5OTkveGh0bWwiPjxzcGFuIGNsYXNzPSJub2RlTGFiZWwiPjxwPlJlZGlyZWN0IGtlIGxvZ2luLnBocDwvcD48L3NwYW4+PC9kaXY+PC9mb3JlaWduT2JqZWN0PjwvZz48L2c+PGcgdHJhbnNmb3JtPSJ0cmFuc2xhdGUoMTMxNS45MjQwOTEzMzkxMTEzLCAxNzc4Ljk5NTY0OTMzNzc2ODYpIiBpZD0iZmxvd2NoYXJ0LUQtMTQxIiBjbGFzcz0ibm9kZSBkZWZhdWx0Ij48cmVjdCBoZWlnaHQ9IjUzLjk5NjI1MDE1MjU4Nzg5IiB3aWR0aD0iMjUyLjUyMTI1NTQ5MzE2NDA2IiB5PSItMjYuOTk4MTI1MDc2MjkzOTQ1IiB4PSItMTI2LjI2MDYyNzc0NjU4MjAzIiBzdHlsZT0iIiBjbGFzcz0iYmFzaWMgbGFiZWwtY29udGFpbmVyIj48L3JlY3Q+PGcgdHJhbnNmb3JtPSJ0cmFuc2xhdGUoLTk2LjI2MDYyNzc0NjU4MjAzLCAtMTEuOTk4MTI1MDc2MjkzOTQ1KSIgc3R5bGU9IiIgY2xhc3M9ImxhYmVsIj48cmVjdD48L3JlY3Q+PGZvcmVpZ25PYmplY3QgaGVpZ2h0PSIyMy45OTYyNTAxNTI1ODc4OSIgd2lkdGg9IjE5Mi41MjEyNTU0OTMxNjQwNiI+PGRpdiBzdHlsZT0iZGlzcGxheTogdGFibGUtY2VsbDsgd2hpdGUtc3BhY2U6IG5vd3JhcDsgbGluZS1oZWlnaHQ6IDEuNTsgbWF4LXdpZHRoOiAyMDBweDsgdGV4dC1hbGlnbjogY2VudGVyOyIgeG1sbnM9Imh0dHA6Ly93d3cudzMub3JnLzE5OTkveGh0bWwiPjxzcGFuIGNsYXNzPSJub2RlTGFiZWwiPjxwPlJlZGlyZWN0IGtlIGRhc2hib2FyZC5waHA8L3A+PC9zcGFuPjwvZGl2PjwvZm9yZWlnbk9iamVjdD48L2c+PC9nPjxnIHRyYW5zZm9ybT0idHJhbnNsYXRlKDUwMi4yMzQwNjIxOTQ4MjQyLCA0OTIuOTczMTM4ODA5MjA0MSkiIGlkPSJmbG93Y2hhcnQtRS0xNDMiIGNsYXNzPSJub2RlIGRlZmF1bHQiPjxyZWN0IGhlaWdodD0iNTMuOTk2MjUwMTUyNTg3ODkiIHdpZHRoPSIyMTAuNjcxMjQ5Mzg5NjQ4NDQiIHk9Ii0yNi45OTgxMjUwNzYyOTM5NDUiIHg9Ii0xMDUuMzM1NjI0Njk0ODI0MjIiIHN0eWxlPSIiIGNsYXNzPSJiYXNpYyBsYWJlbC1jb250YWluZXIiPjwvcmVjdD48ZyB0cmFuc2Zvcm09InRyYW5zbGF0ZSgtNzUuMzM1NjI0Njk0ODI0MjIsIC0xMS45OTgxMjUwNzYyOTM5NDUpIiBzdHlsZT0iIiBjbGFzcz0ibGFiZWwiPjxyZWN0PjwvcmVjdD48Zm9yZWlnbk9iamVjdCBoZWlnaHQ9IjIzLjk5NjI1MDE1MjU4Nzg5IiB3aWR0aD0iMTUwLjY3MTI0OTM4OTY0ODQ0Ij48ZGl2IHN0eWxlPSJkaXNwbGF5OiB0YWJsZS1jZWxsOyB3aGl0ZS1zcGFjZTogbm93cmFwOyBsaW5lLWhlaWdodDogMS41OyBtYXgtd2lkdGg6IDIwMHB4OyB0ZXh0LWFsaWduOiBjZW50ZXI7IiB4bWxucz0iaHR0cDovL3d3dy53My5vcmcvMTk5OS94aHRtbCI+PHNwYW4gY2xhc3M9Im5vZGVMYWJlbCI+PHA+VGFtcGlsa2FuIGZvcm0gbG9naW48L3A+PC9zcGFuPjwvZGl2PjwvZm9yZWlnbk9iamVjdD48L2c+PC9nPjxnIHRyYW5zZm9ybT0idHJhbnNsYXRlKDUwMi4yMzQwNjIxOTQ4MjQyLCA2ODQuNTAwNjM3MDU0NDQzNCkiIGlkPSJmbG93Y2hhcnQtRi0xNDUiIGNsYXNzPSJub2RlIGRlZmF1bHQiPjxwb2x5Z29uIHRyYW5zZm9ybT0idHJhbnNsYXRlKC05MS44MDkzNzM4NTU1OTA4Miw5MS44MDkzNzM4NTU1OTA4MikiIGNsYXNzPSJsYWJlbC1jb250YWluZXIiIHBvaW50cz0iOTEuODA5MzczODU1NTkwODIsMCAxODMuNjE4NzQ3NzExMTgxNjQsLTkxLjgwOTM3Mzg1NTU5MDgyIDkxLjgwOTM3Mzg1NTU5MDgyLC0xODMuNjE4NzQ3NzExMTgxNjQgMCwtOTEuODA5MzczODU1NTkwODIiPjwvcG9seWdvbj48ZyB0cmFuc2Zvcm09InRyYW5zbGF0ZSgtNjQuODExMjQ4Nzc5Mjk2ODgsIC0xMS45OTgxMjUwNzYyOTM5NDUpIiBzdHlsZT0iIiBjbGFzcz0ibGFiZWwiPjxyZWN0PjwvcmVjdD48Zm9yZWlnbk9iamVjdCBoZWlnaHQ9IjIzLjk5NjI1MDE1MjU4Nzg5IiB3aWR0aD0iMTI5LjYyMjQ5NzU1ODU5Mzc1Ij48ZGl2IHN0eWxlPSJkaXNwbGF5OiB0YWJsZS1jZWxsOyB3aGl0ZS1zcGFjZTogbm93cmFwOyBsaW5lLWhlaWdodDogMS41OyBtYXgtd2lkdGg6IDIwMHB4OyB0ZXh0LWFsaWduOiBjZW50ZXI7IiB4bWxucz0iaHR0cDovL3d3dy53My5vcmcvMTk5OS94aHRtbCI+PHNwYW4gY2xhc3M9Im5vZGVMYWJlbCI+PHA+VXNlciBzdWJtaXQgZm9ybT88L3A+PC9zcGFuPjwvZGl2PjwvZm9yZWlnbk9iamVjdD48L2c+PC9nPjxnIHRyYW5zZm9ybT0idHJhbnNsYXRlKDUwMi4yMzQwNjIxOTQ4MjQyLCA4NzYuMDI4MTM1Mjk5NjgyNikiIGlkPSJmbG93Y2hhcnQtRy0xNDciIGNsYXNzPSJub2RlIGRlZmF1bHQiPjxyZWN0IGhlaWdodD0iNTMuOTk2MjUwMTUyNTg3ODkiIHdpZHRoPSIxODMuMDk3NTAzNjYyMTA5MzgiIHk9Ii0yNi45OTgxMjUwNzYyOTM5NDUiIHg9Ii05MS41NDg3NTE4MzEwNTQ2OSIgc3R5bGU9IiIgY2xhc3M9ImJhc2ljIGxhYmVsLWNvbnRhaW5lciI+PC9yZWN0PjxnIHRyYW5zZm9ybT0idHJhbnNsYXRlKC02MS41NDg3NTE4MzEwNTQ2OSwgLTExLjk5ODEyNTA3NjI5Mzk0NSkiIHN0eWxlPSIiIGNsYXNzPSJsYWJlbCI+PHJlY3Q+PC9yZWN0Pjxmb3JlaWduT2JqZWN0IGhlaWdodD0iMjMuOTk2MjUwMTUyNTg3ODkiIHdpZHRoPSIxMjMuMDk3NTAzNjYyMTA5MzgiPjxkaXYgc3R5bGU9ImRpc3BsYXk6IHRhYmxlLWNlbGw7IHdoaXRlLXNwYWNlOiBub3dyYXA7IGxpbmUtaGVpZ2h0OiAxLjU7IG1heC13aWR0aDogMjAwcHg7IHRleHQtYWxpZ246IGNlbnRlcjsiIHhtbG5zPSJodHRwOi8vd3d3LnczLm9yZy8xOTk5L3hodG1sIj48c3BhbiBjbGFzcz0ibm9kZUxhYmVsIj48cD5Qb3N0IGtlIGxvZ2luLnBocDwvcD48L3NwYW4+PC9kaXY+PC9mb3JlaWduT2JqZWN0PjwvZz48L2c+PGcgdHJhbnNmb3JtPSJ0cmFuc2xhdGUoNTAyLjIzNDA2MjE5NDgyNDIsIDEwMjguMTgwMDE1NTYzOTY0OCkiIGlkPSJmbG93Y2hhcnQtSC0xNTEiIGNsYXNzPSJub2RlIGRlZmF1bHQiPjxwb2x5Z29uIHRyYW5zZm9ybT0idHJhbnNsYXRlKC03NS4xNTM3NTMyODA2Mzk2NSw3NS4xNTM3NTMyODA2Mzk2NSkiIGNsYXNzPSJsYWJlbC1jb250YWluZXIiIHBvaW50cz0iNzUuMTUzNzUzMjgwNjM5NjUsMCAxNTAuMzA3NTA2NTYxMjc5MywtNzUuMTUzNzUzMjgwNjM5NjUgNzUuMTUzNzUzMjgwNjM5NjUsLTE1MC4zMDc1MDY1NjEyNzkzIDAsLTc1LjE1Mzc1MzI4MDYzOTY1Ij48L3BvbHlnb24+PGcgdHJhbnNmb3JtPSJ0cmFuc2xhdGUoLTQ4LjE1NTYyODIwNDM0NTcsIC0xMS45OTgxMjUwNzYyOTM5NDUpIiBzdHlsZT0iIiBjbGFzcz0ibGFiZWwiPjxyZWN0PjwvcmVjdD48Zm9yZWlnbk9iamVjdCBoZWlnaHQ9IjIzLjk5NjI1MDE1MjU4Nzg5IiB3aWR0aD0iOTYuMzExMjU2NDA4NjkxNCI+PGRpdiBzdHlsZT0iZGlzcGxheTogdGFibGUtY2VsbDsgd2hpdGUtc3BhY2U6IG5vd3JhcDsgbGluZS1oZWlnaHQ6IDEuNTsgbWF4LXdpZHRoOiAyMDBweDsgdGV4dC1hbGlnbjogY2VudGVyOyIgeG1sbnM9Imh0dHA6Ly93d3cudzMub3JnLzE5OTkveGh0bWwiPjxzcGFuIGNsYXNzPSJub2RlTGFiZWwiPjxwPlZhbGlkYXNpIGlucHV0PC9wPjwvc3Bhbj48L2Rpdj48L2ZvcmVpZ25PYmplY3Q+PC9nPjwvZz48ZyB0cmFuc2Zvcm09InRyYW5zbGF0ZSgxMzUuOTA4NzQ0ODEyMDExNzIsIDEyMDMuMDUxODk3MDQ4OTUwMikiIGlkPSJmbG93Y2hhcnQtSS0xNTMiIGNsYXNzPSJub2RlIGRlZmF1bHQiPjxyZWN0IGhlaWdodD0iNTMuOTk2MjUwMTUyNTg3ODkiIHdpZHRoPSIyNTUuODE3NTA0ODgyODEyNSIgeT0iLTI2Ljk5ODEyNTA3NjI5Mzk0NSIgeD0iLTEyNy45MDg3NTI0NDE0MDYyNSIgc3R5bGU9IiIgY2xhc3M9ImJhc2ljIGxhYmVsLWNvbnRhaW5lciI+PC9yZWN0PjxnIHRyYW5zZm9ybT0idHJhbnNsYXRlKC05Ny45MDg3NTI0NDE0MDYyNSwgLTExLjk5ODEyNTA3NjI5Mzk0NSkiIHN0eWxlPSIiIGNsYXNzPSJsYWJlbCI+PHJlY3Q+PC9yZWN0Pjxmb3JlaWduT2JqZWN0IGhlaWdodD0iMjMuOTk2MjUwMTUyNTg3ODkiIHdpZHRoPSIxOTUuODE3NTA0ODgyODEyNSI+PGRpdiBzdHlsZT0iZGlzcGxheTogdGFibGUtY2VsbDsgd2hpdGUtc3BhY2U6IG5vd3JhcDsgbGluZS1oZWlnaHQ6IDEuNTsgbWF4LXdpZHRoOiAyMDBweDsgdGV4dC1hbGlnbjogY2VudGVyOyIgeG1sbnM9Imh0dHA6Ly93d3cudzMub3JnLzE5OTkveGh0bWwiPjxzcGFuIGNsYXNzPSJub2RlTGFiZWwiPjxwPkVycm9yOiBVc2VybmFtZSB3YWppYiBkaWlzaTwvcD48L3NwYW4+PC9kaXY+PC9mb3JlaWduT2JqZWN0PjwvZz48L2c+PGcgdHJhbnNmb3JtPSJ0cmFuc2xhdGUoNDM4LjgyOTM3NjIyMDcwMzEsIDEyMDMuMDUxODk3MDQ4OTUwMikiIGlkPSJmbG93Y2hhcnQtSi0xNTUiIGNsYXNzPSJub2RlIGRlZmF1bHQiPjxyZWN0IGhlaWdodD0iNTMuOTk2MjUwMTUyNTg3ODkiIHdpZHRoPSIyNTAuMDIzNzU3OTM0NTcwMyIgeT0iLTI2Ljk5ODEyNTA3NjI5Mzk0NSIgeD0iLTEyNS4wMTE4Nzg5NjcyODUxNiIgc3R5bGU9IiIgY2xhc3M9ImJhc2ljIGxhYmVsLWNvbnRhaW5lciI+PC9yZWN0PjxnIHRyYW5zZm9ybT0idHJhbnNsYXRlKC05NS4wMTE4Nzg5NjcyODUxNiwgLTExLjk5ODEyNTA3NjI5Mzk0NSkiIHN0eWxlPSIiIGNsYXNzPSJsYWJlbCI+PHJlY3Q+PC9yZWN0Pjxmb3JlaWduT2JqZWN0IGhlaWdodD0iMjMuOTk2MjUwMTUyNTg3ODkiIHdpZHRoPSIxOTAuMDIzNzU3OTM0NTcwMyI+PGRpdiBzdHlsZT0iZGlzcGxheTogdGFibGUtY2VsbDsgd2hpdGUtc3BhY2U6IG5vd3JhcDsgbGluZS1oZWlnaHQ6IDEuNTsgbWF4LXdpZHRoOiAyMDBweDsgdGV4dC1hbGlnbjogY2VudGVyOyIgeG1sbnM9Imh0dHA6Ly93d3cudzMub3JnLzE5OTkveGh0bWwiPjxzcGFuIGNsYXNzPSJub2RlTGFiZWwiPjxwPkVycm9yOiBQYXNzd29yZCB3YWppYiBkaWlzaTwvcD48L3NwYW4+PC9kaXY+PC9mb3JlaWduT2JqZWN0PjwvZz48L2c+PGcgdHJhbnNmb3JtPSJ0cmFuc2xhdGUoMTA3MC42OTMxMzQzMDc4NjEzLCAxMjAzLjA1MTg5NzA0ODk1MDIpIiBpZD0iZmxvd2NoYXJ0LUstMTU3IiBjbGFzcz0ibm9kZSBkZWZhdWx0Ij48cmVjdCBoZWlnaHQ9IjUzLjk5NjI1MDE1MjU4Nzg5IiB3aWR0aD0iMTk3LjQwNzUwMTIyMDcwMzEyIiB5PSItMjYuOTk4MTI1MDc2MjkzOTQ1IiB4PSItOTguNzAzNzUwNjEwMzUxNTYiIHN0eWxlPSIiIGNsYXNzPSJiYXNpYyBsYWJlbC1jb250YWluZXIiPjwvcmVjdD48ZyB0cmFuc2Zvcm09InRyYW5zbGF0ZSgtNjguNzAzNzUwNjEwMzUxNTYsIC0xMS45OTgxMjUwNzYyOTM5NDUpIiBzdHlsZT0iIiBjbGFzcz0ibGFiZWwiPjxyZWN0PjwvcmVjdD48Zm9yZWlnbk9iamVjdCBoZWlnaHQ9IjIzLjk5NjI1MDE1MjU4Nzg5IiB3aWR0aD0iMTM3LjQwNzUwMTIyMDcwMzEyIj48ZGl2IHN0eWxlPSJkaXNwbGF5OiB0YWJsZS1jZWxsOyB3aGl0ZS1zcGFjZTogbm93cmFwOyBsaW5lLWhlaWdodDogMS41OyBtYXgtd2lkdGg6IDIwMHB4OyB0ZXh0LWFsaWduOiBjZW50ZXI7IiB4bWxucz0iaHR0cDovL3d3dy53My5vcmcvMTk5OS94aHRtbCI+PHNwYW4gY2xhc3M9Im5vZGVMYWJlbCI+PHA+UGFuZ2dpbCBmdW5nc2kgbG9naW48L3A+PC9zcGFuPjwvZGl2PjwvZm9yZWlnbk9iamVjdD48L2c+PC9nPjxnIHRyYW5zZm9ybT0idHJhbnNsYXRlKDEwNzAuNjkzMTM0MzA3ODYxMywgMTM3NS42Njc1MjI0MzA0MikiIGlkPSJmbG93Y2hhcnQtTC0xNjMiIGNsYXNzPSJub2RlIGRlZmF1bHQiPjxwb2x5Z29uIHRyYW5zZm9ybT0idHJhbnNsYXRlKC05NS42MTc1MDIyMTI1MjQ0MSw5NS42MTc1MDIyMTI1MjQ0MSkiIGNsYXNzPSJsYWJlbC1jb250YWluZXIiIHBvaW50cz0iOTUuNjE3NTAyMjEyNTI0NDEsMCAxOTEuMjM1MDA0NDI1MDQ4ODMsLTk1LjYxNzUwMjIxMjUyNDQxIDk1LjYxNzUwMjIxMjUyNDQxLC0xOTEuMjM1MDA0NDI1MDQ4ODMgMCwtOTUuNjE3NTAyMjEyNTI0NDEiPjwvcG9seWdvbj48ZyB0cmFuc2Zvcm09InRyYW5zbGF0ZSgtNjguNjE5Mzc3MTM2MjMwNDcsIC0xMS45OTgxMjUwNzYyOTM5NDUpIiBzdHlsZT0iIiBjbGFzcz0ibGFiZWwiPjxyZWN0PjwvcmVjdD48Zm9yZWlnbk9iamVjdCBoZWlnaHQ9IjIzLjk5NjI1MDE1MjU4Nzg5IiB3aWR0aD0iMTM3LjIzODc1NDI3MjQ2MDk0Ij48ZGl2IHN0eWxlPSJkaXNwbGF5OiB0YWJsZS1jZWxsOyB3aGl0ZS1zcGFjZTogbm93cmFwOyBsaW5lLWhlaWdodDogMS41OyBtYXgtd2lkdGg6IDIwMHB4OyB0ZXh0LWFsaWduOiBjZW50ZXI7IiB4bWxucz0iaHR0cDovL3d3dy53My5vcmcvMTk5OS94aHRtbCI+PHNwYW4gY2xhc3M9Im5vZGVMYWJlbCI+PHA+Q2VrIGRhdGFiYXNlIHVzZXJzPC9wPjwvc3Bhbj48L2Rpdj48L2ZvcmVpZ25PYmplY3Q+PC9nPjwvZz48ZyB0cmFuc2Zvcm09InRyYW5zbGF0ZSg2OTUuMDI2ODc4MzU2OTMzNiwgMTU3MS4wMDMxNDkwMzI1OTI4KSIgaWQ9ImZsb3djaGFydC1NLTE2NSIgY2xhc3M9Im5vZGUgZGVmYXVsdCI+PHJlY3QgaGVpZ2h0PSI1My45OTYyNTAxNTI1ODc4OSIgd2lkdGg9IjI1OS45OTEyNTY3MTM4NjcyIiB5PSItMjYuOTk4MTI1MDc2MjkzOTQ1IiB4PSItMTI5Ljk5NTYyODM1NjkzMzYiIHN0eWxlPSIiIGNsYXNzPSJiYXNpYyBsYWJlbC1jb250YWluZXIiPjwvcmVjdD48ZyB0cmFuc2Zvcm09InRyYW5zbGF0ZSgtOTkuOTk1NjI4MzU2OTMzNiwgLTExLjk5ODEyNTA3NjI5Mzk0NSkiIHN0eWxlPSIiIGNsYXNzPSJsYWJlbCI+PHJlY3Q+PC9yZWN0Pjxmb3JlaWduT2JqZWN0IGhlaWdodD0iMjMuOTk2MjUwMTUyNTg3ODkiIHdpZHRoPSIxOTkuOTkxMjU2NzEzODY3MiI+PGRpdiBzdHlsZT0iZGlzcGxheTogdGFibGUtY2VsbDsgd2hpdGUtc3BhY2U6IG5vd3JhcDsgbGluZS1oZWlnaHQ6IDEuNTsgbWF4LXdpZHRoOiAyMDBweDsgdGV4dC1hbGlnbjogY2VudGVyOyIgeG1sbnM9Imh0dHA6Ly93d3cudzMub3JnLzE5OTkveGh0bWwiPjxzcGFuIGNsYXNzPSJub2RlTGFiZWwiPjxwPkVycm9yOiBVc2VybmFtZSB0aWRhayBkaXRlbXVrYW48L3A+PC9zcGFuPjwvZGl2PjwvZm9yZWlnbk9iamVjdD48L2c+PC9nPjxnIHRyYW5zZm9ybT0idHJhbnNsYXRlKDk4MS42MzUwMjUwMjQ0MTQxLCAxNTcxLjAwMzE0OTAzMjU5MjgpIiBpZD0iZmxvd2NoYXJ0LU4tMTY3IiBjbGFzcz0ibm9kZSBkZWZhdWx0Ij48cmVjdCBoZWlnaHQ9IjUzLjk5NjI1MDE1MjU4Nzg5IiB3aWR0aD0iMjEzLjIyNTAwNjEwMzUxNTYyIiB5PSItMjYuOTk4MTI1MDc2MjkzOTQ1IiB4PSItMTA2LjYxMjUwMzA1MTc1NzgxIiBzdHlsZT0iIiBjbGFzcz0iYmFzaWMgbGFiZWwtY29udGFpbmVyIj48L3JlY3Q+PGcgdHJhbnNmb3JtPSJ0cmFuc2xhdGUoLTc2LjYxMjUwMzA1MTc1NzgxLCAtMTEuOTk4MTI1MDc2MjkzOTQ1KSIgc3R5bGU9IiIgY2xhc3M9ImxhYmVsIj48cmVjdD48L3JlY3Q+PGZvcmVpZ25PYmplY3QgaGVpZ2h0PSIyMy45OTYyNTAxNTI1ODc4OSIgd2lkdGg9IjE1My4yMjUwMDYxMDM1MTU2MiI+PGRpdiBzdHlsZT0iZGlzcGxheTogdGFibGUtY2VsbDsgd2hpdGUtc3BhY2U6IG5vd3JhcDsgbGluZS1oZWlnaHQ6IDEuNTsgbWF4LXdpZHRoOiAyMDBweDsgdGV4dC1hbGlnbjogY2VudGVyOyIgeG1sbnM9Imh0dHA6Ly93d3cudzMub3JnLzE5OTkveGh0bWwiPjxzcGFuIGNsYXNzPSJub2RlTGFiZWwiPjxwPkVycm9yOiBQYXNzd29yZCBzYWxhaDwvcD48L3NwYW4+PC9kaXY+PC9mb3JlaWduT2JqZWN0PjwvZz48L2c+PGcgdHJhbnNmb3JtPSJ0cmFuc2xhdGUoMTIzNS4yOTM3ODEyODA1MTc2LCAxNTcxLjAwMzE0OTAzMjU5MjgpIiBpZD0iZmxvd2NoYXJ0LU8tMTY5IiBjbGFzcz0ibm9kZSBkZWZhdWx0Ij48cmVjdCBoZWlnaHQ9IjUzLjk5NjI1MDE1MjU4Nzg5IiB3aWR0aD0iMTc5LjY2NjI1MjEzNjIzMDQ3IiB5PSItMjYuOTk4MTI1MDc2MjkzOTQ1IiB4PSItODkuODMzMTI2MDY4MTE1MjMiIHN0eWxlPSIiIGNsYXNzPSJiYXNpYyBsYWJlbC1jb250YWluZXIiPjwvcmVjdD48ZyB0cmFuc2Zvcm09InRyYW5zbGF0ZSgtNTkuODMzMTI2MDY4MTE1MjM0LCAtMTEuOTk4MTI1MDc2MjkzOTQ1KSIgc3R5bGU9IiIgY2xhc3M9ImxhYmVsIj48cmVjdD48L3JlY3Q+PGZvcmVpZ25PYmplY3QgaGVpZ2h0PSIyMy45OTYyNTAxNTI1ODc4OSIgd2lkdGg9IjExOS42NjYyNTIxMzYyMzA0NyI+PGRpdiBzdHlsZT0iZGlzcGxheTogdGFibGUtY2VsbDsgd2hpdGUtc3BhY2U6IG5vd3JhcDsgbGluZS1oZWlnaHQ6IDEuNTsgbWF4LXdpZHRoOiAyMDBweDsgdGV4dC1hbGlnbjogY2VudGVyOyIgeG1sbnM9Imh0dHA6Ly93d3cudzMub3JnLzE5OTkveGh0bWwiPjxzcGFuIGNsYXNzPSJub2RlTGFiZWwiPjxwPlNldCBTRVNTSU9OIHVzZXI8L3A+PC9zcGFuPjwvZGl2PjwvZm9yZWlnbk9iamVjdD48L2c+PC9nPjxnIHRyYW5zZm9ybT0idHJhbnNsYXRlKDEyMzUuMjkzNzgxMjgwNTE3NiwgMTY3NC45OTkzOTkxODUxODA3KSIgaWQ9ImZsb3djaGFydC1QLTE3NSIgY2xhc3M9Im5vZGUgZGVmYXVsdCI+PHJlY3QgaGVpZ2h0PSI1My45OTYyNTAxNTI1ODc4OSIgd2lkdGg9IjI1Mi41MjEyNTU0OTMxNjQwNiIgeT0iLTI2Ljk5ODEyNTA3NjI5Mzk0NSIgeD0iLTEyNi4yNjA2Mjc3NDY1ODIwMyIgc3R5bGU9IiIgY2xhc3M9ImJhc2ljIGxhYmVsLWNvbnRhaW5lciI+PC9yZWN0PjxnIHRyYW5zZm9ybT0idHJhbnNsYXRlKC05Ni4yNjA2Mjc3NDY1ODIwMywgLTExLjk5ODEyNTA3NjI5Mzk0NSkiIHN0eWxlPSIiIGNsYXNzPSJsYWJlbCI+PHJlY3Q+PC9yZWN0Pjxmb3JlaWduT2JqZWN0IGhlaWdodD0iMjMuOTk2MjUwMTUyNTg3ODkiIHdpZHRoPSIxOTIuNTIxMjU1NDkzMTY0MDYiPjxkaXYgc3R5bGU9ImRpc3BsYXk6IHRhYmxlLWNlbGw7IHdoaXRlLXNwYWNlOiBub3dyYXA7IGxpbmUtaGVpZ2h0OiAxLjU7IG1heC13aWR0aDogMjAwcHg7IHRleHQtYWxpZ246IGNlbnRlcjsiIHhtbG5zPSJodHRwOi8vd3d3LnczLm9yZy8xOTk5L3hodG1sIj48c3BhbiBjbGFzcz0ibm9kZUxhYmVsIj48cD5SZWRpcmVjdCBrZSBkYXNoYm9hcmQucGhwPC9wPjwvc3Bhbj48L2Rpdj48L2ZvcmVpZ25PYmplY3Q+PC9nPjwvZz48ZyB0cmFuc2Zvcm09InRyYW5zbGF0ZSgxMzE1LjkyNDA5MTMzOTExMTMsIDE4ODIuOTkxODk5NDkwMzU2NCkiIGlkPSJmbG93Y2hhcnQtUS0xNzkiIGNsYXNzPSJub2RlIGRlZmF1bHQiPjxyZWN0IGhlaWdodD0iNTMuOTk2MjUwMTUyNTg3ODkiIHdpZHRoPSIyNTUuMDk3NTAzNjYyMTA5MzgiIHk9Ii0yNi45OTgxMjUwNzYyOTM5NDUiIHg9Ii0xMjcuNTQ4NzUxODMxMDU0NjkiIHN0eWxlPSIiIGNsYXNzPSJiYXNpYyBsYWJlbC1jb250YWluZXIiPjwvcmVjdD48ZyB0cmFuc2Zvcm09InRyYW5zbGF0ZSgtOTcuNTQ4NzUxODMxMDU0NjksIC0xMS45OTgxMjUwNzYyOTM5NDUpIiBzdHlsZT0iIiBjbGFzcz0ibGFiZWwiPjxyZWN0PjwvcmVjdD48Zm9yZWlnbk9iamVjdCBoZWlnaHQ9IjIzLjk5NjI1MDE1MjU4Nzg5IiB3aWR0aD0iMTk1LjA5NzUwMzY2MjEwOTM4Ij48ZGl2IHN0eWxlPSJkaXNwbGF5OiB0YWJsZS1jZWxsOyB3aGl0ZS1zcGFjZTogbm93cmFwOyBsaW5lLWhlaWdodDogMS41OyBtYXgtd2lkdGg6IDIwMHB4OyB0ZXh0LWFsaWduOiBjZW50ZXI7IiB4bWxucz0iaHR0cDovL3d3dy53My5vcmcvMTk5OS94aHRtbCI+PHNwYW4gY2xhc3M9Im5vZGVMYWJlbCI+PHA+VGFtcGlsa2FuIG1lbnUgZGFzaGJvYXJkPC9wPjwvc3Bhbj48L2Rpdj48L2ZvcmVpZ25PYmplY3Q+PC9nPjwvZz48ZyB0cmFuc2Zvcm09InRyYW5zbGF0ZSg4OTQuMTAwNjU0NjAyMDUwOCwgMTk4Ni45ODgxNDk2NDI5NDQzKSIgaWQ9ImZsb3djaGFydC1SLTE4MSIgY2xhc3M9Im5vZGUgZGVmYXVsdCI+PHJlY3QgaGVpZ2h0PSI1My45OTYyNTAxNTI1ODc4OSIgd2lkdGg9IjIzMi4zNTAwMDYxMDM1MTU2MiIgeT0iLTI2Ljk5ODEyNTA3NjI5Mzk0NSIgeD0iLTExNi4xNzUwMDMwNTE3NTc4MSIgc3R5bGU9IiIgY2xhc3M9ImJhc2ljIGxhYmVsLWNvbnRhaW5lciI+PC9yZWN0PjxnIHRyYW5zZm9ybT0idHJhbnNsYXRlKC04Ni4xNzUwMDMwNTE3NTc4MSwgLTExLjk5ODEyNTA3NjI5Mzk0NSkiIHN0eWxlPSIiIGNsYXNzPSJsYWJlbCI+PHJlY3Q+PC9yZWN0Pjxmb3JlaWduT2JqZWN0IGhlaWdodD0iMjMuOTk2MjUwMTUyNTg3ODkiIHdpZHRoPSIxNzIuMzUwMDA2MTAzNTE1NjIiPjxkaXYgc3R5bGU9ImRpc3BsYXk6IHRhYmxlLWNlbGw7IHdoaXRlLXNwYWNlOiBub3dyYXA7IGxpbmUtaGVpZ2h0OiAxLjU7IG1heC13aWR0aDogMjAwcHg7IHRleHQtYWxpZ246IGNlbnRlcjsiIHhtbG5zPSJodHRwOi8vd3d3LnczLm9yZy8xOTk5L3hodG1sIj48c3BhbiBjbGFzcz0ibm9kZUxhYmVsIj48cD5NZW51OiBNYW5hamVtZW4gS2VsYXM8L3A+PC9zcGFuPjwvZGl2PjwvZm9yZWlnbk9iamVjdD48L2c+PC9nPjxnIHRyYW5zZm9ybT0idHJhbnNsYXRlKDExNzcuNDU3NTM0NzkwMDM5LCAxOTg2Ljk4ODE0OTY0Mjk0NDMpIiBpZD0iZmxvd2NoYXJ0LVMtMTgzIiBjbGFzcz0ibm9kZSBkZWZhdWx0Ij48cmVjdCBoZWlnaHQ9IjUzLjk5NjI1MDE1MjU4Nzg5IiB3aWR0aD0iMjM0LjM2Mzc1NDI3MjQ2MDk0IiB5PSItMjYuOTk4MTI1MDc2MjkzOTQ1IiB4PSItMTE3LjE4MTg3NzEzNjIzMDQ3IiBzdHlsZT0iIiBjbGFzcz0iYmFzaWMgbGFiZWwtY29udGFpbmVyIj48L3JlY3Q+PGcgdHJhbnNmb3JtPSJ0cmFuc2xhdGUoLTg3LjE4MTg3NzEzNjIzMDQ3LCAtMTEuOTk4MTI1MDc2MjkzOTQ1KSIgc3R5bGU9IiIgY2xhc3M9ImxhYmVsIj48cmVjdD48L3JlY3Q+PGZvcmVpZ25PYmplY3QgaGVpZ2h0PSIyMy45OTYyNTAxNTI1ODc4OSIgd2lkdGg9IjE3NC4zNjM3NTQyNzI0NjA5NCI+PGRpdiBzdHlsZT0iZGlzcGxheTogdGFibGUtY2VsbDsgd2hpdGUtc3BhY2U6IG5vd3JhcDsgbGluZS1oZWlnaHQ6IDEuNTsgbWF4LXdpZHRoOiAyMDBweDsgdGV4dC1hbGlnbjogY2VudGVyOyIgeG1sbnM9Imh0dHA6Ly93d3cudzMub3JnLzE5OTkveGh0bWwiPjxzcGFuIGNsYXNzPSJub2RlTGFiZWwiPjxwPk1lbnU6IE1hbmFqZW1lbiBTaXN3YTwvcD48L3NwYW4+PC9kaXY+PC9mb3JlaWduT2JqZWN0PjwvZz48L2c+PGcgdHJhbnNmb3JtPSJ0cmFuc2xhdGUoMTQ1NC4zOTA2NDc4ODgxODM2LCAxOTg2Ljk4ODE0OTY0Mjk0NDMpIiBpZD0iZmxvd2NoYXJ0LVQtMTg1IiBjbGFzcz0ibm9kZSBkZWZhdWx0Ij48cmVjdCBoZWlnaHQ9IjUzLjk5NjI1MDE1MjU4Nzg5IiB3aWR0aD0iMjE5LjUwMjUwMjQ0MTQwNjI1IiB5PSItMjYuOTk4MTI1MDc2MjkzOTQ1IiB4PSItMTA5Ljc1MTI1MTIyMDcwMzEyIiBzdHlsZT0iIiBjbGFzcz0iYmFzaWMgbGFiZWwtY29udGFpbmVyIj48L3JlY3Q+PGcgdHJhbnNmb3JtPSJ0cmFuc2xhdGUoLTc5Ljc1MTI1MTIyMDcwMzEyLCAtMTEuOTk4MTI1MDc2MjkzOTQ1KSIgc3R5bGU9IiIgY2xhc3M9ImxhYmVsIj48cmVjdD48L3JlY3Q+PGZvcmVpZ25PYmplY3QgaGVpZ2h0PSIyMy45OTYyNTAxNTI1ODc4OSIgd2lkdGg9IjE1OS41MDI1MDI0NDE0MDYyNSI+PGRpdiBzdHlsZT0iZGlzcGxheTogdGFibGUtY2VsbDsgd2hpdGUtc3BhY2U6IG5vd3JhcDsgbGluZS1oZWlnaHQ6IDEuNTsgbWF4LXdpZHRoOiAyMDBweDsgdGV4dC1hbGlnbjogY2VudGVyOyIgeG1sbnM9Imh0dHA6Ly93d3cudzMub3JnLzE5OTkveGh0bWwiPjxzcGFuIGNsYXNzPSJub2RlTGFiZWwiPjxwPk1lbnU6IElucHV0L0VkaXQgTmlsYWk8L3A+PC9zcGFuPjwvZGl2PjwvZm9yZWlnbk9iamVjdD48L2c+PC9nPjxnIHRyYW5zZm9ybT0idHJhbnNsYXRlKDE3MjEuMzY1MDIwNzUxOTUzMSwgMTk4Ni45ODgxNDk2NDI5NDQzKSIgaWQ9ImZsb3djaGFydC1VLTE4NyIgY2xhc3M9Im5vZGUgZGVmYXVsdCI+PHJlY3QgaGVpZ2h0PSI1My45OTYyNTAxNTI1ODc4OSIgd2lkdGg9IjE1Ni42NDg3NTAzMDUxNzU3OCIgeT0iLTI2Ljk5ODEyNTA3NjI5Mzk0NSIgeD0iLTc4LjMyNDM3NTE1MjU4Nzg5IiBzdHlsZT0iIiBjbGFzcz0iYmFzaWMgbGFiZWwtY29udGFpbmVyIj48L3JlY3Q+PGcgdHJhbnNmb3JtPSJ0cmFuc2xhdGUoLTQ4LjMyNDM3NTE1MjU4Nzg5LCAtMTEuOTk4MTI1MDc2MjkzOTQ1KSIgc3R5bGU9IiIgY2xhc3M9ImxhYmVsIj48cmVjdD48L3JlY3Q+PGZvcmVpZ25PYmplY3QgaGVpZ2h0PSIyMy45OTYyNTAxNTI1ODc4OSIgd2lkdGg9Ijk2LjY0ODc1MDMwNTE3NTc4Ij48ZGl2IHN0eWxlPSJkaXNwbGF5OiB0YWJsZS1jZWxsOyB3aGl0ZS1zcGFjZTogbm93cmFwOyBsaW5lLWhlaWdodDogMS41OyBtYXgtd2lkdGg6IDIwMHB4OyB0ZXh0LWFsaWduOiBjZW50ZXI7IiB4bWxucz0iaHR0cDovL3d3dy53My5vcmcvMTk5OS94aHRtbCI+PHNwYW4gY2xhc3M9Im5vZGVMYWJlbCI+PHA+TWVudTogTG9nb3V0PC9wPjwvc3Bhbj48L2Rpdj48L2ZvcmVpZ25PYmplY3Q+PC9nPjwvZz48ZyB0cmFuc2Zvcm09InRyYW5zbGF0ZSg4OTQuMTAwNjU0NjAyMDUwOCwgMjA5MC45ODQzOTk3OTU1MzIpIiBpZD0iZmxvd2NoYXJ0LVYtMTg5IiBjbGFzcz0ibm9kZSBkZWZhdWx0Ij48cmVjdCBoZWlnaHQ9IjUzLjk5NjI1MDE1MjU4Nzg5IiB3aWR0aD0iMTQxLjY0MTI1MDYxMDM1MTU2IiB5PSItMjYuOTk4MTI1MDc2MjkzOTQ1IiB4PSItNzAuODIwNjI1MzA1MTc1NzgiIHN0eWxlPSIiIGNsYXNzPSJiYXNpYyBsYWJlbC1jb250YWluZXIiPjwvcmVjdD48ZyB0cmFuc2Zvcm09InRyYW5zbGF0ZSgtNDAuODIwNjI1MzA1MTc1NzgsIC0xMS45OTgxMjUwNzYyOTM5NDUpIiBzdHlsZT0iIiBjbGFzcz0ibGFiZWwiPjxyZWN0PjwvcmVjdD48Zm9yZWlnbk9iamVjdCBoZWlnaHQ9IjIzLjk5NjI1MDE1MjU4Nzg5IiB3aWR0aD0iODEuNjQxMjUwNjEwMzUxNTYiPjxkaXYgc3R5bGU9ImRpc3BsYXk6IHRhYmxlLWNlbGw7IHdoaXRlLXNwYWNlOiBub3dyYXA7IGxpbmUtaGVpZ2h0OiAxLjU7IG1heC13aWR0aDogMjAwcHg7IHRleHQtYWxpZ246IGNlbnRlcjsiIHhtbG5zPSJodHRwOi8vd3d3LnczLm9yZy8xOTk5L3hodG1sIj48c3BhbiBjbGFzcz0ibm9kZUxhYmVsIj48cD5jbGFzc2VzLnBocDwvcD48L3NwYW4+PC9kaXY+PC9mb3JlaWduT2JqZWN0PjwvZz48L2c+PGcgdHJhbnNmb3JtPSJ0cmFuc2xhdGUoMTE3Ny40NTc1MzQ3OTAwMzksIDIwOTAuOTg0Mzk5Nzk1NTMyKSIgaWQ9ImZsb3djaGFydC1XLTE5MSIgY2xhc3M9Im5vZGUgZGVmYXVsdCI+PHJlY3QgaGVpZ2h0PSI1My45OTYyNTAxNTI1ODc4OSIgd2lkdGg9IjE1My4yMDYyNTMwNTE3NTc4IiB5PSItMjYuOTk4MTI1MDc2MjkzOTQ1IiB4PSItNzYuNjAzMTI2NTI1ODc4OSIgc3R5bGU9IiIgY2xhc3M9ImJhc2ljIGxhYmVsLWNvbnRhaW5lciI+PC9yZWN0PjxnIHRyYW5zZm9ybT0idHJhbnNsYXRlKC00Ni42MDMxMjY1MjU4Nzg5MDYsIC0xMS45OTgxMjUwNzYyOTM5NDUpIiBzdHlsZT0iIiBjbGFzcz0ibGFiZWwiPjxyZWN0PjwvcmVjdD48Zm9yZWlnbk9iamVjdCBoZWlnaHQ9IjIzLjk5NjI1MDE1MjU4Nzg5IiB3aWR0aD0iOTMuMjA2MjUzMDUxNzU3ODEiPjxkaXYgc3R5bGU9ImRpc3BsYXk6IHRhYmxlLWNlbGw7IHdoaXRlLXNwYWNlOiBub3dyYXA7IGxpbmUtaGVpZ2h0OiAxLjU7IG1heC13aWR0aDogMjAwcHg7IHRleHQtYWxpZ246IGNlbnRlcjsiIHhtbG5zPSJodHRwOi8vd3d3LnczLm9yZy8xOTk5L3hodG1sIj48c3BhbiBjbGFzcz0ibm9kZUxhYmVsIj48cD5zdHVkZW50cy5waHA8L3A+PC9zcGFuPjwvZGl2PjwvZm9yZWlnbk9iamVjdD48L2c+PC9nPjxnIHRyYW5zZm9ybT0idHJhbnNsYXRlKDE0NTQuMzkwNjQ3ODg4MTgzNiwgMjA5MC45ODQzOTk3OTU1MzIpIiBpZD0iZmxvd2NoYXJ0LVgtMTkzIiBjbGFzcz0ibm9kZSBkZWZhdWx0Ij48cmVjdCBoZWlnaHQ9IjUzLjk5NjI1MDE1MjU4Nzg5IiB3aWR0aD0iMTM5LjIxMTI1MDMwNTE3NTc4IiB5PSItMjYuOTk4MTI1MDc2MjkzOTQ1IiB4PSItNjkuNjA1NjI1MTUyNTg3ODkiIHN0eWxlPSIiIGNsYXNzPSJiYXNpYyBsYWJlbC1jb250YWluZXIiPjwvcmVjdD48ZyB0cmFuc2Zvcm09InRyYW5zbGF0ZSgtMzkuNjA1NjI1MTUyNTg3ODksIC0xMS45OTgxMjUwNzYyOTM5NDUpIiBzdHlsZT0iIiBjbGFzcz0ibGFiZWwiPjxyZWN0PjwvcmVjdD48Zm9yZWlnbk9iamVjdCBoZWlnaHQ9IjIzLjk5NjI1MDE1MjU4Nzg5IiB3aWR0aD0iNzkuMjExMjUwMzA1MTc1NzgiPjxkaXYgc3R5bGU9ImRpc3BsYXk6IHRhYmxlLWNlbGw7IHdoaXRlLXNwYWNlOiBub3dyYXA7IGxpbmUtaGVpZ2h0OiAxLjU7IG1heC13aWR0aDogMjAwcHg7IHRleHQtYWxpZ246IGNlbnRlcjsiIHhtbG5zPSJodHRwOi8vd3d3LnczLm9yZy8xOTk5L3hodG1sIj48c3BhbiBjbGFzcz0ibm9kZUxhYmVsIj48cD5ncmFkZXMucGhwPC9wPjwvc3Bhbj48L2Rpdj48L2ZvcmVpZ25PYmplY3Q+PC9nPjwvZz48ZyB0cmFuc2Zvcm09InRyYW5zbGF0ZSgxNzIxLjM2NTAyMDc1MTk1MzEsIDIwOTAuOTg0Mzk5Nzk1NTMyKSIgaWQ9ImZsb3djaGFydC1ZLTE5NSIgY2xhc3M9Im5vZGUgZGVmYXVsdCI+PHJlY3QgaGVpZ2h0PSI1My45OTYyNTAxNTI1ODc4OSIgd2lkdGg9IjEzNy40NTYyNTMwNTE3NTc4IiB5PSItMjYuOTk4MTI1MDc2MjkzOTQ1IiB4PSItNjguNzI4MTI2NTI1ODc4OSIgc3R5bGU9IiIgY2xhc3M9ImJhc2ljIGxhYmVsLWNvbnRhaW5lciI+PC9yZWN0PjxnIHRyYW5zZm9ybT0idHJhbnNsYXRlKC0zOC43MjgxMjY1MjU4Nzg5MDYsIC0xMS45OTgxMjUwNzYyOTM5NDUpIiBzdHlsZT0iIiBjbGFzcz0ibGFiZWwiPjxyZWN0PjwvcmVjdD48Zm9yZWlnbk9iamVjdCBoZWlnaHQ9IjIzLjk5NjI1MDE1MjU4Nzg5IiB3aWR0aD0iNzcuNDU2MjUzMDUxNzU3ODEiPjxkaXYgc3R5bGU9ImRpc3BsYXk6IHRhYmxlLWNlbGw7IHdoaXRlLXNwYWNlOiBub3dyYXA7IGxpbmUtaGVpZ2h0OiAxLjU7IG1heC13aWR0aDogMjAwcHg7IHRleHQtYWxpZ246IGNlbnRlcjsiIHhtbG5zPSJodHRwOi8vd3d3LnczLm9yZy8xOTk5L3hodG1sIj48c3BhbiBjbGFzcz0ibm9kZUxhYmVsIj48cD5sb2dvdXQucGhwPC9wPjwvc3Bhbj48L2Rpdj48L2ZvcmVpZ25PYmplY3Q+PC9nPjwvZz48ZyB0cmFuc2Zvcm09InRyYW5zbGF0ZSgxNzA5Ljg2MDA0MjU3MjAyMTUsIDIxOTQuOTgwNjQ5OTQ4MTIpIiBpZD0iZmxvd2NoYXJ0LVotMTk3IiBjbGFzcz0ibm9kZSBkZWZhdWx0Ij48cmVjdCBoZWlnaHQ9IjUzLjk5NjI1MDE1MjU4Nzg5IiB3aWR0aD0iMTcxLjU4ODc1Mjc0NjU4MjAzIiB5PSItMjYuOTk4MTI1MDc2MjkzOTQ1IiB4PSItODUuNzk0Mzc2MzczMjkxMDIiIHN0eWxlPSIiIGNsYXNzPSJiYXNpYyBsYWJlbC1jb250YWluZXIiPjwvcmVjdD48ZyB0cmFuc2Zvcm09InRyYW5zbGF0ZSgtNTUuNzk0Mzc2MzczMjkxMDE2LCAtMTEuOTk4MTI1MDc2MjkzOTQ1KSIgc3R5bGU9IiIgY2xhc3M9ImxhYmVsIj48cmVjdD48L3JlY3Q+PGZvcmVpZ25PYmplY3QgaGVpZ2h0PSIyMy45OTYyNTAxNTI1ODc4OSIgd2lkdGg9IjExMS41ODg3NTI3NDY1ODIwMyI+PGRpdiBzdHlsZT0iZGlzcGxheTogdGFibGUtY2VsbDsgd2hpdGUtc3BhY2U6IG5vd3JhcDsgbGluZS1oZWlnaHQ6IDEuNTsgbWF4LXdpZHRoOiAyMDBweDsgdGV4dC1hbGlnbjogY2VudGVyOyIgeG1sbnM9Imh0dHA6Ly93d3cudzMub3JnLzE5OTkveGh0bWwiPjxzcGFuIGNsYXNzPSJub2RlTGFiZWwiPjxwPnNlc3Npb25fZGVzdHJveTwvcD48L3NwYW4+PC9kaXY+PC9mb3JlaWduT2JqZWN0PjwvZz48L2c+PC9nPjwvZz48L2c+PC9zdmc+;" vertex="1" parent="1">
                        <mxGeometry x="-567" y="211" width="1807.689453125" height="2229.97900390625" as="geometry"/>
                    </mxCell>
                </UserObject>
            </root>
        </mxGraphModel>
    </diagram>
</mxfile>